<?xml version="1.0" encoding="UTF-8"?>
<svg width="109px" height="106px" viewBox="0 0 109 106" version="1.1" xmlns="http://www.w3.org/2000/svg" xmlns:xlink="http://www.w3.org/1999/xlink">
    <!-- Generator: Sketch 50.2 (55047) - http://www.bohemiancoding.com/sketch -->
    <title>Group 21</title>
    <desc>Created with Sketch.</desc>
    <defs></defs>
    <g id="Page-1" stroke="none" stroke-width="1" fill="none" fill-rule="evenodd">
        <g id="Homepage-Concept" transform="translate(-220.000000, -795.000000)" stroke="#9040EA" stroke-width="4">
            <g id="Group-27" transform="translate(199.000000, 779.000000)">
                <g id="Group-21" transform="translate(21.000000, 16.000000)">
                    <rect id="Rectangle-13-Copy" fill="#FFFFFF" x="21" y="83" width="12" height="21" rx="6"></rect>
                    <rect id="Rectangle-13-Copy-2" fill="#FFFFFF" x="74" y="83" width="12" height="21" rx="6"></rect>
                    <rect id="Rectangle-13" fill="#FFFFFF" x="12" y="2" width="84" height="89" rx="11"></rect>
                    <circle id="Oval-4" fill="#FFFFFF" cx="29" cy="75" r="6"></circle>
                    <circle id="Oval-4" fill="#FFFFFF" cx="79" cy="75" r="6"></circle>
                    <path d="M39.4642857,57.6953125 L52,43" id="Line-5" stroke-linecap="round"></path>
                    <path d="M63.4642857,57.6953125 L76,43" id="Line-5-Copy-2" stroke-linecap="round"></path>
                    <path d="M12.4565217,15.5 L95.5484948,15.5" id="Line-5-Copy" stroke-linecap="square"></path>
                    <path d="M12.4565217,58.5 L95.5484948,58.5" id="Line-5" stroke-linecap="square"></path>
                    <rect id="Rectangle-14" fill="#FFFFFF" x="2" y="41" width="10" height="18" rx="4"></rect>
                    <rect id="Rectangle-14" fill="#FFFFFF" x="97" y="41" width="10" height="18" rx="4"></rect>
                    <path d="M48,9 L61,9" id="Line-6" stroke-linecap="round"></path>
                    <path d="M61,26 L66,26" id="Line-6" stroke-linecap="round"></path>
                    <path d="M72,26 L85,26" id="Line-6" stroke-linecap="round"></path>
                    <path d="M44,74 C45.0842598,78 48.2509265,80 53.5,80 C58.7490735,80 61.9157402,78 63,74" id="Line-6-Copy" stroke-linecap="round"></path>
                </g>
            </g>
        </g>
    </g>
</svg>