<?xml version="1.0" encoding="UTF-8"?>
<svg width="134px" height="82px" viewBox="0 0 134 82" version="1.1" xmlns="http://www.w3.org/2000/svg" xmlns:xlink="http://www.w3.org/1999/xlink">
    <!-- Generator: Sketch 50.2 (55047) - http://www.bohemiancoding.com/sketch -->
    <title>Group 18</title>
    <desc>Created with Sketch.</desc>
    <defs>
        <filter x="-4.2%" y="-7.7%" width="108.5%" height="125.4%" filterUnits="objectBoundingBox" id="filter-1">
            <feOffset dx="0" dy="7" in="SourceAlpha" result="shadowOffsetOuter1"></feOffset>
            <feColorMatrix values="0 0 0 0 0   0 0 0 0 0   0 0 0 0 0  0 0 0 0.1 0" type="matrix" in="shadowOffsetOuter1" result="shadowMatrixOuter1"></feColorMatrix>
            <feMerge>
                <feMergeNode in="shadowMatrixOuter1"></feMergeNode>
                <feMergeNode in="SourceGraphic"></feMergeNode>
            </feMerge>
        </filter>
    </defs>
    <g id="Page-1" stroke="none" stroke-width="1" fill="none" fill-rule="evenodd">
        <g id="Homepage-Concept" transform="translate(-1060.000000, -811.000000)" fill="#FFFFFF" stroke="#9040EA" stroke-width="4">
            <g id="Group-18" filter="url(#filter-1)" transform="translate(1062.000000, 813.000000)">
                <path d="M38.9496295,31.9612365 C39.7271384,32.546554 40.4630135,33.1759829 41.1526149,33.8453047 L45.8511126,25.7072679 C46.980151,23.751716 49.4807055,23.0816944 51.4362574,24.2107328 L51.5712933,24.2886958 C53.5697778,25.4425214 54.519026,27.8141727 53.8685352,30.0282448 L46.9579844,53.5496489 C44.5076517,63.1234768 35.0641564,70.2564729 23.788275,70.2564729 C10.6503735,70.2564729 0,60.5731816 0,48.6282364 C0,48.4642392 0.00200756368,48.3006684 0.00600156595,48.137543 C0.00201663135,48.058974 2.67427847e-15,47.9798857 2.66453526e-15,47.9003263 L0,16.439812 C-3.11605835e-16,13.8953572 2.06268812,11.8326691 4.60714286,11.8326691 C7.1515976,11.8326691 9.21428571,13.8953572 9.21428571,16.439812 L9.21428571,31.5330552 C9.36279376,31.4282456 9.51270407,31.3250005 9.66398674,31.2233468 L9.66398674,8.30485196 C9.66398674,5.76039721 11.7266749,3.6977091 14.2711296,3.6977091 C16.8155843,3.6977091 18.8782725,5.76039721 18.8782725,8.30485196 L18.8782725,27.4612344 C19.027662,27.4327323 19.1775671,27.4055045 19.3279735,27.3795641 L19.3279735,4.60714286 C19.3279735,2.06268812 21.3906616,4.67408753e-16 23.9351163,0 C26.4795711,-4.67408753e-16 28.5422592,2.06268812 28.5422592,4.60714286 L28.5422592,27.4319659 C28.9437165,27.5059976 29.3415038,27.589221 29.7353438,27.681384 L29.7353438,6.82576832 C29.7353438,4.28131358 31.7980319,2.21862546 34.3424867,2.21862546 C36.8869414,2.21862546 38.9496295,4.28131358 38.9496295,6.82576832 L38.9496295,31.9612365 Z" id="Combined-Shape"></path>
                <path d="M113.94963,31.9612365 C114.727138,32.546554 115.463013,33.1759829 116.152615,33.8453047 L120.851113,25.7072679 C121.980151,23.751716 124.480706,23.0816944 126.436257,24.2107328 L126.571293,24.2886958 C128.569778,25.4425214 129.519026,27.8141727 128.868535,30.0282448 L121.957984,53.5496489 C119.507652,63.1234768 110.064156,70.2564729 98.788275,70.2564729 C85.6503735,70.2564729 75,60.5731816 75,48.6282364 C75,48.4642392 75.0020076,48.3006684 75.0060016,48.137543 C75.0020166,48.058974 75,47.9798857 75,47.9003263 L75,16.439812 C75,13.8953572 77.0626881,11.8326691 79.6071429,11.8326691 C82.1515976,11.8326691 84.2142857,13.8953572 84.2142857,16.439812 L84.2142857,31.5330552 C84.3627938,31.4282456 84.5127041,31.3250005 84.6639867,31.2233468 L84.6639867,8.30485196 C84.6639867,5.76039721 86.7266749,3.6977091 89.2711296,3.6977091 C91.8155843,3.6977091 93.8782725,5.76039721 93.8782725,8.30485196 L93.8782725,27.4612344 C94.027662,27.4327323 94.1775671,27.4055045 94.3279735,27.3795641 L94.3279735,4.60714286 C94.3279735,2.06268812 96.3906616,4.67408753e-16 98.9351163,0 C101.479571,-4.67408753e-16 103.542259,2.06268812 103.542259,4.60714286 L103.542259,27.4319659 C103.943716,27.5059976 104.341504,27.589221 104.735344,27.681384 L104.735344,6.82576832 C104.735344,4.28131358 106.798032,2.21862546 109.342487,2.21862546 C111.886941,2.21862546 113.94963,4.28131358 113.94963,6.82576832 L113.94963,31.9612365 Z" id="Combined-Shape" transform="translate(102.035901, 35.128236) scale(-1, 1) translate(-102.035901, -35.128236) "></path>
            </g>
        </g>
    </g>
</svg>