<?xml version="1.0" encoding="UTF-8"?>
<svg width="36px" height="27px" viewBox="0 0 36 27" version="1.1" xmlns="http://www.w3.org/2000/svg" xmlns:xlink="http://www.w3.org/1999/xlink">
    <!-- Generator: Sketch 50.2 (55047) - http://www.bohemiancoding.com/sketch -->
    <title>Combined Shape</title>
    <desc>Created with Sketch.</desc>
    <defs></defs>
    <g id="Page-1" stroke="none" stroke-width="1" fill="none" fill-rule="evenodd">
        <g id="Homepage-Concept" transform="translate(-721.000000, -874.000000)" fill="#00E6F1">
            <path d="M744.345417,880.205232 L742.22753,883.120253 C741.902906,883.567061 741.277536,883.666109 740.830728,883.341485 C740.626682,883.193236 740.486191,882.973361 740.437402,882.72591 L738.850242,874.676058 C738.743407,874.134205 739.096059,873.608339 739.637912,873.501504 C739.665137,873.496136 739.692574,873.491904 739.720151,873.488818 L747.813871,872.583158 C748.36273,872.521743 748.857456,872.916894 748.918871,873.465753 C748.946609,873.71364 748.880704,873.962945 748.73409,874.164741 L746.697154,876.968344 C749.969849,879.431809 752.086049,883.349258 752.086049,887.760971 C752.086049,892.887265 749.228793,897.346212 745.019961,899.632131 C744.384625,899.977198 743.589851,899.741888 743.244785,899.106551 C743.140624,898.914771 743.086063,898.699994 743.086063,898.481753 L743.086047,897.247746 C743.086047,896.582032 743.417285,895.959955 743.969628,895.588346 C744.008263,895.562353 744.044006,895.537703 744.076857,895.514396 C746.502889,893.793214 748.086049,890.961976 748.086049,887.760971 C748.086049,884.679654 746.619066,881.94097 744.345417,880.205232 Z M733.41279,894.96284 L735.530677,892.047819 C735.855302,891.601012 736.480671,891.501963 736.927479,891.826588 C737.131525,891.974836 737.272016,892.194712 737.320805,892.442163 L738.907965,900.492015 C739.0148,901.033868 738.662148,901.559733 738.120295,901.666568 C738.09307,901.671936 738.065633,901.676169 738.038056,901.679255 L729.944336,902.584914 C729.395477,902.64633 728.900751,902.251178 728.839336,901.702319 C728.811598,901.454432 728.877503,901.205128 729.024117,901.003331 L731.061053,898.199728 C727.788358,895.736263 725.672158,891.818814 725.672158,887.407101 C725.672158,882.280807 728.529414,877.82186 732.738246,875.535941 C733.373582,875.190874 734.168356,875.426184 734.513423,876.061521 C734.617583,876.253301 734.672144,876.468079 734.672144,876.686319 L734.67216,877.920326 C734.67216,878.58604 734.340922,879.208118 733.788579,879.579726 C733.749944,879.605719 733.714201,879.63037 733.68135,879.653676 C731.255318,881.374858 729.672158,884.206096 729.672158,887.407101 C729.672158,890.488418 731.139141,893.227103 733.41279,894.96284 Z" id="Combined-Shape" transform="translate(738.879104, 887.584036) rotate(54.000000) translate(-738.879104, -887.584036) "></path>
        </g>
    </g>
</svg>