<?xml version="1.0" encoding="UTF-8"?>
<svg width="245px" height="175px" viewBox="0 0 245 175" version="1.1" xmlns="http://www.w3.org/2000/svg" xmlns:xlink="http://www.w3.org/1999/xlink">
    <!-- Generator: Sketch 50.2 (55047) - http://www.bohemiancoding.com/sketch -->
    <title>Group</title>
    <desc>Created with Sketch.</desc>
    <defs></defs>
    <g id="Page-1" stroke="none" stroke-width="1" fill="none" fill-rule="evenodd">
        <g id="The-Bus-Stop,-White-Bus-Copy" transform="translate(-107.000000, -65.000000)" fill="#7333BB">
            <g id="Group" transform="translate(107.000000, 65.000000)">
                <path d="M244.718843,137.981 C244.316544,153.020801 243.824,164.168 243.824,164.168 L230.17,164.168 C230.17,164.168 232.91,140.91 211.311,140.796 C204.075,140.758 190.841,144.867 192.764,164.168 L43.853,164.168 C43.853,164.168 46.169,141.331 24.8,140.783 C18.169,140.612 6.569,144.553 5.76,159.258 L1.719,159.832 C1.719,159.832 -3.471,131.833 8.071,130.681 L8.071,130.565 L244.901,130.565 C244.867047,132.063928 244.833094,133.533937 244.796153,134.981 L41.805,134.981 L41.805,137.981 L244.718843,137.981 Z" id="Combined-Shape"></path>
                <path d="M127.278,61.589 C127.271,61.592 127.258,61.596 127.251,61.596 C127.266,61.615 127.283,61.629 127.297,61.651 C127.295,61.629 127.271,61.612 127.278,61.589" id="Fill-5"></path>
                <path d="M127.321,61.209 C127.291,61.195 127.258,61.199 127.228,61.174 C127.262,61.209 127.291,61.251 127.321,61.287 C127.321,61.261 127.316,61.235 127.321,61.209" id="Fill-6"></path>
                <path d="M19.505,104.071 C19.35,101.174 19.689,98.584 18.106,95.859 C17.775,95.299 17.373,94.733 17.034,94.148 C17.598,96.69 17.174,99.551 17.257,102.052 C17.361,105.012 15.276,113.217 19.61,114.496 C19.397,111.011 19.696,107.565 19.505,104.071" id="Fill-8" opacity="0.400000006"></path>
                <path d="M19.057,76.79 C18.903,73.893 20.076,71.002 18.493,68.277 C18.162,67.716 16.925,67.452 16.586,66.868 C17.15,69.41 16.727,72.271 16.811,74.772 C16.862,76.242 16.994,79.394 16.847,82.31 C16.747,84.255 16.057,86.122 16.847,87.216 C17.255,87.783 18.418,86.996 19.163,87.216 C19.073,85.732 19.314,84.243 19.332,82.766 C19.355,80.773 19.167,78.795 19.057,76.79" id="Fill-9" opacity="0.400000006"></path>
                <path d="M235.561,40.415 C235.561,42.88 233.564,44.878 231.1,44.878 L205.741,44.878 C203.276,44.878 201.28,42.88 201.28,40.415 L201.28,11.846 C201.28,9.381 203.276,7.384 205.741,7.384 L219.55,7.384 C229.165,7.384 235.561,22.833 235.561,31.258 L235.561,40.415 Z M196.141,40.415 C196.141,42.88 194.142,44.878 191.679,44.878 L168.411,44.878 C165.949,44.878 163.949,42.88 163.949,40.415 L163.949,11.846 C163.949,9.381 165.949,7.384 168.411,7.384 L191.679,7.384 C194.142,7.384 196.141,9.381 196.141,11.846 L196.141,40.415 Z M159.854,40.415 C159.854,42.88 157.858,44.878 155.396,44.878 L96.58,44.878 C94.117,44.878 92.118,42.88 92.118,40.415 L92.118,11.846 C92.118,9.381 94.117,7.384 96.58,7.384 L155.396,7.384 C157.858,7.384 159.854,9.381 159.854,11.846 L159.854,40.415 Z M86.77,40.415 C86.77,42.88 84.771,44.878 82.308,44.878 L59.041,44.878 C56.578,44.878 54.579,42.88 54.579,40.415 L54.579,11.846 C54.579,9.381 56.578,7.384 59.041,7.384 L82.308,7.384 C84.771,7.384 86.77,9.381 86.77,11.846 L86.77,40.415 Z M49.021,40.415 C49.021,42.88 47.025,44.878 44.561,44.878 L24.636,44.878 C22.175,44.878 20.176,42.88 20.176,40.415 L20.176,27.741 C20.176,25.277 19.896,7.213 28.836,7.277 L44.561,7.384 C47.025,7.384 49.021,9.381 49.021,11.846 L49.021,40.415 Z M243.899,35.457 C240.71,-0.531 223.678,0.594 223.678,0.594 L22.146,0.697 C22.146,0.697 13.076,1.69 11.08,18.507 C10.269,25.367 8.944,41.043 8.144,51.366 L244.552,51.366 C244.372,47.581 244.161,38.424 243.899,35.457 Z" id="Fill-10"></path>
                <path d="M40.1545182,159.161423 C40.1545182,167.75642 33.2173177,174.723001 24.6558793,174.723001 C16.087884,174.723001 9.146,167.75642 9.146,159.161423 C9.146,150.583339 16.087884,143.613 24.6558793,143.613 C33.2173177,143.613 40.1545182,150.583339 40.1545182,159.161423" id="Fill-11"></path>
                <path d="M226.917363,159.161423 C226.917363,167.75642 219.950782,174.723001 211.372699,174.723001 C202.778641,174.723001 195.813,167.75642 195.813,159.161423 C195.813,150.583339 202.778641,143.613 211.372699,143.613 C219.950782,143.613 226.917363,150.583339 226.917363,159.161423" id="Fill-12"></path>
                <path d="M18.783,68.177 C19.166,68.684 19.664,69.356 19.87,70.014 C21,69.774 22.117,69.92 23.284,69.978 C24.217,70.019 25.395,70.141 26.122,70.817 C26.473,71.143 26.786,71.508 27.068,71.887 C26.745,69.542 25.922,67.332 23.74,66.871 C23.569,66.837 18.674,66.427 17.453,66.715 C17.957,67.143 18.397,67.674 18.783,68.177" id="Fill-14" opacity="0.400000006"></path>
                <path d="M32.722,114.749 C31.044,117.724 27.875,120.875 24.079,120.396 C20.193,119.898 16.116,121.08 12.271,120.526 C19.211,125.015 30.213,125.778 34.057,117.013 C35.732,113.179 35.719,109.576 35.856,105.515 C35.958,102.444 34.988,100.081 33.486,97.811 C33.607,98.291 33.711,98.782 33.791,99.298 C34.516,103.744 35.026,110.652 32.722,114.749" id="Fill-15" opacity="0.400000006"></path>
                <path d="M21.259,93.363 C20.427,93.391 18.674,93.925 17.781,93.633 C18.534,94.584 19.086,95.473 19.469,96.382 C19.644,96.195 19.911,96.051 20.338,95.98 C21.812,95.731 23.45,95.573 24.836,96.239 C25.459,96.541 25.887,96.928 26.222,97.367 C25.495,95.135 24.085,93.276 21.259,93.363" id="Fill-16" opacity="0.400000006"></path>
                <path d="M27.903,90.908 C28.699,91.236 29.409,91.629 30.025,92.098 C32.144,89.842 34.851,89.111 35.646,85.411 C36.151,83.046 36.013,80.481 36.602,78.15 C37.788,73.449 36.781,67.518 32.455,64.574 C32.413,64.545 32.373,64.519 32.33,64.493 C32.786,65.243 33.158,66.093 33.376,67.114 C34.943,74.47 35.829,86.839 27.903,90.908" id="Fill-17" opacity="0.4"></path>
                <path d="M11.277,61.325 C11.324,61.351 11.366,61.383 11.42,61.366 C11.456,61.349 11.496,61.336 11.529,61.325 C11.628,61.286 11.731,61.195 11.722,61.08 C11.895,62.549 17.497,61.563 18.15,61.523 C23.055,61.221 26.614,60.965 30.577,64.134 C33.669,66.609 33.158,74.053 33.188,77.705 C33.23,82.623 31.627,88.313 26.786,90.367 C26.357,90.545 26.514,91.044 26.847,91.212 C26.856,91.226 26.856,91.245 26.867,91.256 C29.33,94.049 31.788,95.492 32.685,99.599 C33.727,104.341 33.512,111.411 31.098,115.583 C29.117,119.004 24.427,119.401 21.021,119.413 C17.94,119.42 14.252,120.056 11.254,119.301 C10.661,118.083 11.048,115.863 11.048,114.663 C11.051,111.616 10.959,108.566 10.955,105.513 C10.949,99.683 10.946,93.857 10.94,88.026 C10.935,83.757 10.417,79.477 10.472,75.224 C10.51,72.264 13.076,64.37 11.277,61.325 Z M10.879,60.737 C10.875,60.764 10.879,60.79 10.879,60.819 C10.848,60.781 10.82,60.737 10.787,60.703 C10.817,60.729 10.848,60.723 10.879,60.737 Z M11.174,61.121 C11.167,61.145 11.19,61.161 11.194,61.182 C11.18,61.161 11.159,61.15 11.146,61.128 C11.153,61.126 11.167,61.125 11.174,61.121 Z M32.455,64.574 C36.781,67.518 37.788,73.449 36.602,78.15 C36.013,80.481 36.151,83.046 35.646,85.411 C34.851,89.111 32.144,89.842 30.025,92.098 C29.409,91.629 28.699,91.236 27.903,90.908 C35.829,86.839 34.943,74.47 33.376,67.114 C33.158,66.093 32.786,65.243 32.33,64.493 C32.373,64.519 32.413,64.545 32.455,64.574 Z M35.856,105.515 C35.719,109.576 35.732,113.179 34.057,117.013 C30.213,125.778 19.211,125.015 12.271,120.526 C16.116,121.08 20.193,119.898 24.079,120.396 C27.875,120.875 31.044,117.724 32.722,114.749 C35.026,110.652 34.516,103.744 33.791,99.298 C33.711,98.782 33.607,98.291 33.486,97.811 C34.988,100.081 35.958,102.444 35.856,105.515 Z M24.836,96.239 C23.45,95.573 21.812,95.731 20.338,95.98 C19.911,96.051 19.644,96.195 19.469,96.382 C19.086,95.473 18.534,94.584 17.781,93.633 C18.674,93.925 20.427,93.391 21.259,93.363 C24.085,93.276 25.495,95.135 26.222,97.367 C25.887,96.928 25.459,96.541 24.836,96.239 Z M17.453,102.171 C17.388,99.745 17.719,96.969 17.28,94.503 C17.543,95.07 17.858,95.619 18.116,96.163 C19.352,98.806 19.086,101.318 19.207,104.129 C19.356,107.518 19.123,110.863 19.289,114.243 C15.909,113.003 17.534,105.043 17.453,102.171 Z M16.221,93.67 C16.25,93.727 16.28,93.779 16.306,93.835 C15.604,95.707 16.041,98.162 16.149,100.069 C16.393,104.39 16.347,108.737 16.35,113.064 C16.353,116.958 23.171,115.587 25.031,113.926 C27.545,111.672 28.24,108.253 28.204,104.779 C28.338,104.378 28.272,104.061 28.167,103.508 C28.038,101.324 27.687,99.186 27.367,97.346 C26.39,91.799 21.147,91.649 16.566,92.827 C16.188,92.922 16.056,93.344 16.221,93.67 Z M18.049,68.953 C18.393,69.57 18.597,70.278 19.136,70.749 C18.438,74.156 18.916,78.098 19.157,81.526 C19.233,82.566 18.598,85.508 19.03,86.994 C18.382,86.916 17.678,86.864 17.109,86.962 C17.158,80.391 16.979,73.811 17.004,67.243 C17.408,67.779 17.748,68.414 18.049,68.953 Z M23.74,66.871 C25.922,67.332 26.745,69.542 27.068,71.887 C26.786,71.508 26.473,71.143 26.122,70.817 C25.395,70.141 24.217,70.019 23.284,69.978 C22.117,69.92 21,69.774 19.87,70.014 C19.664,69.356 19.166,68.684 18.783,68.177 C18.397,67.674 17.957,67.143 17.453,66.715 C18.674,66.427 23.569,66.837 23.74,66.871 Z M16.945,87.833 C19.138,89.037 22.658,88.537 24.76,87.589 C28.578,85.857 28.42,80.224 28.36,76.485 C28.436,75.942 28.425,75.404 28.348,74.877 C28.333,72.346 28.173,67.374 25.825,66.433 C23.94,65.679 22.184,65.339 20.193,65.665 C19.301,65.815 17.785,65.398 16.859,65.773 C16.668,65.63 16.341,65.664 16.26,65.946 C15.32,69.266 15.995,73.683 15.984,77.133 C15.967,80.574 15.911,84.004 15.945,87.457 C15.951,88.038 16.633,88.151 16.945,87.833 Z" id="Fill-20"></path>
                <path d="M204.78,68.183 C205.478,75.739 205.559,83.575 205.545,91.161 C205.543,95.613 205.944,100.069 205.912,104.503 C205.889,107.592 206.453,111.871 205.163,114.737 C202.723,120.146 198.56,120.946 193.215,121.652 C192.034,122.049 190.781,121.948 189.562,121.521 C189.869,121.807 190.175,122.087 190.485,122.324 C194.089,125.085 202.978,123.698 206.006,120.16 C210.735,114.635 208.813,106.6 209.016,100.05 C209.198,94.209 208.048,88.411 208.002,82.578 C207.94,75.34 208.674,65.733 201.51,61.639 C203.295,63.111 204.51,65.22 204.78,68.183" id="Fill-21" opacity="0.4"></path>
                <path d="M193,114.203 C190.777,111.603 191.355,104.963 191.337,102.375 C191.284,95.396 191.462,88.411 191.512,81.429 C191.542,77.69 190.572,70.29 194.651,67.972 C195.652,67.402 196.573,67.43 197.313,67.814 C196.81,66.956 196.122,66.238 195.086,65.825 C191.169,64.26 189.627,68.664 189.311,71.783 C188.434,80.279 189.037,88.969 188.647,97.5 C188.465,101.503 188.018,107.421 189.391,111.205 C190.436,114.115 191.744,114.091 193,114.203" id="Fill-22" opacity="0.4"></path>
                <path d="M199.602,61.534 C205.278,64.372 203.972,74.073 204.283,79.401 C204.569,84.22 204.321,89.087 204.569,93.925 C204.887,100.233 205.402,107.347 204.246,113.592 C203.251,118.903 197.768,119.892 193.286,120.595 C191.518,120.536 189.813,120.169 188.19,119.42 C184.692,117.924 183.079,114.465 182.7,110.907 C182.476,108.855 182.445,106.735 182.434,104.671 C182.411,99.91 182.569,95.125 182.576,90.348 C182.576,85.377 183.133,80.43 183.027,75.455 C182.98,73.228 183.055,70.433 183.646,68.316 C185.672,61.102 192.898,58.181 199.602,61.534 Z M208.002,82.578 C208.048,88.411 209.198,94.209 209.016,100.05 C208.813,106.6 210.735,114.635 206.006,120.16 C202.978,123.698 194.089,125.085 190.485,122.324 C190.175,122.087 189.869,121.807 189.562,121.521 C190.781,121.948 192.034,122.049 193.215,121.652 C198.56,120.946 202.723,120.146 205.163,114.737 C206.453,111.871 205.889,107.592 205.912,104.503 C205.944,100.069 205.543,95.613 205.545,91.161 C205.559,83.575 205.478,75.739 204.78,68.183 C204.51,65.22 203.295,63.111 201.51,61.639 C208.674,65.733 207.94,75.34 208.002,82.578 Z M188.647,97.5 C189.037,88.969 188.434,80.279 189.311,71.783 C189.627,68.664 191.169,64.26 195.086,65.825 C196.122,66.238 196.81,66.956 197.313,67.814 C196.573,67.43 195.652,67.402 194.651,67.972 C190.572,70.29 191.542,77.69 191.512,81.429 C191.462,88.411 191.284,95.396 191.337,102.375 C191.355,104.963 190.777,111.603 193,114.203 C191.744,114.091 190.436,114.115 189.391,111.205 C188.018,107.421 188.465,101.503 188.647,97.5 Z M193.377,115.379 C193.439,115.621 193.622,115.829 193.949,115.832 C197.648,115.882 199.253,114.146 199.911,110.611 C201.144,104.023 200.291,96.531 200.092,89.874 C199.925,84.031 200.77,77.352 199.813,71.61 C199.297,68.525 197.748,63.149 193.34,64.055 C189.826,64.779 188.29,66.845 188.023,70.33 C187.495,77.239 187.823,84.143 187.585,91.046 C187.358,97.457 187.134,103.62 187.961,110.003 C188.188,111.747 188.717,113.848 190.411,114.815 C191.707667,115.107667 192.696333,115.295667 193.377,115.379 Z" id="Fill-25"></path>
                <path d="M225.478,66.908 C226.765,67.945 228.217,68.902 229.2,70.218 C229.242,70.212 229.28,70.206 229.324,70.211 C229.431,70.109 229.536,70.006 229.635,69.962 C229.886,69.857 230.263,69.795 230.543,69.829 C231.36,69.922 232.054,70.099 232.685,70.644 C232.931,70.861 233.12,71.121 233.307,71.38 C233.272,71.238 233.267,71.081 233.231,70.946 C232.29,67.529 228.755,66.2 225.478,66.908" id="Fill-26" opacity="0.4"></path>
                <path d="M218.548,61.563 C218.441,61.553 218.336,61.533 218.237,61.438 C218.358,61.563 218.47,61.713 218.572,61.884 C218.555,61.781 218.555,61.67 218.548,61.563" id="Fill-27"></path>
                <path d="M238.72,88.037 C237.476,89.987 236.481,92.15 234.062,92.877 C231.146,93.758 228.322,93.394 225.438,93.77 C225.941,94.1 226.376,94.565 226.79,94.964 C227.409,95.554 228.13,96.562 228.92,96.92 C229.041,96.973 229.088,97.058 229.131,97.152 C239.842,96.994 244.042,86.741 243.402,77.095 C243.172,73.531 243.237,70.707 241.123,67.689 C240.504,66.806 239.618,65.67 238.601,64.697 C239.538,66.203 240.085,68.042 240.152,70.239 C240.314,75.174 241.499,83.666 238.72,88.037" id="Fill-28" opacity="0.4"></path>
                <path d="M226.134,68.678 C225.618,68.264 225.211,67.846 224.844,67.371 C224.181,70.15 224.683,73.85 224.922,76.626 C225.108,78.806 225.134,81.051 225.021,83.231 C225.003,83.561 224.894,87.524 224.691,87.44 C224.694,87.44 224.694,87.44 224.694,87.444 C225.795,87.029 227.172,86.868 228.378,86.779 C228.808,85.674 228.447,83.466 228.534,82.438 C228.64,81.198 228.817,79.877 228.656,78.643 C228.345,76.242 228.724,73.531 228.755,71.061 C227.778,70.398 227.061,69.418 226.134,68.678" id="Fill-29" opacity="0.4"></path>
                <path d="M224.617,121.801 C224.442,121.552 224.123,121.26 223.88,120.949 C223.827,120.968 223.773,121.008 223.724,121.005 C223.724,121.008 223.728,121.01 223.728,121.018 C223.044,121.105 222.412,120.993 221.723,120.999 C221.244,121.005 220.749,121.074 220.265,120.999 C220.028,120.959 219.717,120.965 219.399,120.965 C219.907,121.627 220.37,122.317 220.937,122.939 C221.256,123.293 221.85,123.769 222.143,124.282 C222.687,123.843 223.447,123.742 224.139,123.728 C224.844,123.722 225.543,123.607 226.243,123.517 C225.655,122.989 225.043,122.417 224.617,121.801" id="Fill-31" opacity="0.4"></path>
                <path d="M226.364,95.888 C225.863,95.362 225.396,94.655 224.859,94.121 C224.832,98.612 224.331,103.072 224.465,107.574 C224.58,111.466 225.201,116.074 224.219,119.924 C224.663,120.089 224.965,120.676 225.161,121.043 C225.605,121.87 226.243,122.681 226.83,123.448 C226.905,123.442 226.979,123.424 227.055,123.424 C227.327,121.923 226.862,119.793 226.771,118.387 C226.626,116.038 226.445,113.431 226.626,111.088 C226.968,106.624 226.357,101.775 227.872,97.49 C227.303,97.047 226.827,96.37 226.364,95.888" id="Fill-32" opacity="0.4"></path>
                <path d="M239.137,74.462 C239.024,79.232 239.55,84.751 236.854,89.001 C233.559,94.192 228.817,91.497 224.505,93.237 C224.287,93.193 224.073,93.291 223.995,93.528 C223.989,93.546 223.977,93.558 223.974,93.577 C223.97,93.608 223.938,93.62 223.938,93.658 C223.933,97.936 223.454,102.176 223.561,106.467 C223.666,110.951 223.948,115.605 223.545,120.085 C222.59,120.129 221.646,120.089 220.69,120.19 C220.283,120.234 219.86,120.106 219.452,120.129 C219.375,120.129 219.083,120.19 218.818,120.227 C218.813,120.221 218.813,120.212 218.803,120.206 C218.803,120.21 218.8,120.212 218.8,120.212 C218.728,120.146 218.629,120.134 218.532,120.129 C219.475,116.093 218.728,111.308 218.849,107.202 C218.989,102.538 219.107,97.842 218.887,93.18 C218.635,87.7 218.612,82.109 218.881,76.634 C219.02,73.759 219.966,65.958 218.878,62.619 C219.005,62.155 219.063,61.677 219.077,61.195 C220.793,60.499 226.644,61.171 228.191,61.19 C237.077,61.3 239.323,66.494 239.137,74.462 Z M241.123,67.689 C243.237,70.707 243.172,73.531 243.402,77.095 C244.042,86.741 239.842,96.994 229.131,97.152 C229.088,97.058 229.041,96.973 228.92,96.92 C228.13,96.562 227.409,95.554 226.79,94.964 C226.376,94.565 225.941,94.1 225.438,93.77 C228.322,93.394 231.146,93.758 234.062,92.877 C236.481,92.15 237.476,89.987 238.72,88.037 C241.499,83.666 240.314,75.174 240.152,70.239 C240.085,68.042 239.538,66.203 238.601,64.697 C239.618,65.67 240.504,66.806 241.123,67.689 Z M226.626,111.088 C226.445,113.431 226.626,116.038 226.771,118.387 C226.862,119.793 227.327,121.923 227.055,123.424 C226.979,123.424 226.905,123.442 226.83,123.448 C226.243,122.681 225.605,121.87 225.161,121.043 C224.965,120.676 224.663,120.089 224.219,119.924 C225.201,116.074 224.58,111.466 224.465,107.574 C224.331,103.072 224.832,98.612 224.859,94.121 C225.396,94.655 225.863,95.362 226.364,95.888 C226.827,96.37 227.303,97.047 227.872,97.49 C226.357,101.775 226.968,106.624 226.626,111.088 Z M224.139,123.728 C223.447,123.742 222.687,123.843 222.143,124.282 C221.85,123.769 221.256,123.293 220.937,122.939 C220.37,122.317 219.907,121.627 219.399,120.965 C219.717,120.965 220.028,120.959 220.265,120.999 C220.749,121.074 221.244,121.005 221.723,120.999 C222.412,120.993 223.044,121.105 223.728,121.018 C223.728,121.01 223.724,121.008 223.724,121.005 C223.773,121.008 223.827,120.968 223.88,120.949 C224.123,121.26 224.442,121.552 224.617,121.801 C225.043,122.417 225.655,122.989 226.243,123.517 C225.543,123.607 224.844,123.722 224.139,123.728 Z M218.548,61.563 C218.555,61.67 218.555,61.781 218.572,61.884 C218.47,61.713 218.358,61.563 218.237,61.438 C218.336,61.533 218.441,61.553 218.548,61.563 Z M233.231,70.946 C233.267,71.081 233.272,71.238 233.307,71.38 C233.12,71.121 232.931,70.861 232.685,70.644 C232.054,70.099 231.36,69.922 230.543,69.829 C230.263,69.795 229.886,69.857 229.635,69.962 C229.536,70.006 229.431,70.109 229.324,70.211 C229.28,70.206 229.242,70.212 229.2,70.218 C228.217,68.902 226.765,67.945 225.478,66.908 C228.755,66.2 232.29,67.529 233.231,70.946 Z M228.656,78.643 C228.817,79.877 228.64,81.198 228.534,82.438 C228.447,83.466 228.808,85.674 228.378,86.779 C227.172,86.868 225.795,87.029 224.694,87.444 C224.694,87.44 224.694,87.44 224.691,87.44 C224.894,87.524 225.003,83.561 225.021,83.231 C225.134,81.051 225.108,78.806 224.922,76.626 C224.683,73.85 224.181,70.15 224.844,67.371 C225.211,67.846 225.618,68.264 226.134,68.678 C227.061,69.418 227.778,70.398 228.755,71.061 C228.724,73.531 228.345,76.242 228.656,78.643 Z M224.417,66.148 C224.229,66.212 224.15,66.35 224.113,66.5 C224.023,66.561 223.944,66.64 223.911,66.764 C223.134,69.537 223.809,72.941 223.809,75.801 C223.821,79.731 223.746,83.853 224.075,87.773 C224.11,88.164 224.461,88.205 224.679,88.049 C226.65,88.299 230.627,88.488 232.007,87.066 C234.655,84.349 234.286,80.606 234.522,77.031 C234.699,74.282 234.89,70.584 233.104,68.263 C231.115,65.666 227.465,65.095 224.417,66.148 Z" id="Fill-34"></path>
                <path d="M96.753,93.891 C99.564,98.558 100.994,104.161 99.657,109.532 C99.636,109.62 99.567,109.651 99.524,109.711 C98.489,113.64 98.345,116.341 94.947,119.159 C92.692,121.02 89.074,121.978 86.188,121.558 C85.324,121.433 84.557,121.232 83.832,121.005 C85.518,122.411 87.342,123.598 89.59,124.008 C94.59,124.935 99.978,120.254 101.432,115.826 C102.763,111.793 102.778,108.286 102.567,104.042 C102.362,99.931 99.605,96.736 96.753,93.891" id="Fill-35" opacity="0.4"></path>
                <path d="M101.305,79.072 C101.616,79.434 101.908,79.809 102.206,80.178 C102.185,78.525 102.431,76.888 102.079,75.154 C101.734,73.463 101.268,71.783 101.138,70.054 C101.088,69.379 100.606,68.342 99.913,67.206 C99.899,67.195 99.881,67.191 99.869,67.174 C99.11,66.029 98.162,64.927 97.145,63.879 C99.098,67.369 99.394,72.002 99.632,76.893 C100.266,77.531 100.708,78.389 101.305,79.072" id="Fill-36" opacity="0.4"></path>
                <path d="M86.609,114.253 C86.995,114.34 87.333,114.351 87.681,114.374 C85.831,112.711 85.75,109.274 86.148,106.902 C85.487,106.51 84.995,105.678 84.401,105.214 C83.856,104.782 83.391,104.292 82.943,103.775 C82.619,107.288 82.389,113.289 86.609,114.253" id="Fill-38" opacity="0.4"></path>
                <path d="M99.06,77.766 C97.953,77.779 96.822,77.779 95.709,77.738 C95.254,77.724 94.682,77.779 94.142,77.762 C95.158,78.831 96.2,80.371 97.396,80.576 C98.376,80.75 99.271,80.506 100.235,80.576 C100.677,80.606 101.138,80.635 101.585,80.62 C101.174,80.22 100.752,79.823 100.412,79.391 C100.021,78.896 99.545,78.258 99.06,77.766" id="Fill-39" opacity="0.4"></path>
                <path d="M86.522,65.18 C83.683,66.529 82.433,68.867 82.766,72.189 C82.529,76.479 82.967,81.526 86.972,84.148 C87.579,84.547 88.216,84.998 88.856,85.466 C85.862,81.733 85.061,75.866 86.48,71.424 C87.072,69.568 88.128,66.5 90.573,66.5 C90.585,66.5 90.591,66.503 90.601,66.503 C89.463,65.412 87.973,64.712 86.522,65.18" id="Fill-40" opacity="0.4"></path>
                <path d="M101.432,115.826 C99.978,120.254 94.59,124.935 89.59,124.008 C87.342,123.598 85.518,122.411 83.832,121.005 C84.557,121.232 85.324,121.433 86.188,121.558 C89.074,121.978 92.692,121.02 94.947,119.159 C98.345,116.341 98.489,113.64 99.524,109.711 C99.567,109.651 99.636,109.62 99.657,109.532 C100.994,104.161 99.564,98.558 96.753,93.891 C99.605,96.736 102.362,99.931 102.567,104.042 C102.778,108.286 102.763,111.793 101.432,115.826 Z M79.066,116.733 C76.693,112.947 77.297,107.104 76.433,102.613 C76.653,102.671 76.924,102.724 76.97,102.746 C77.16,102.832 77.406,102.817 77.602,102.832 C78.426,102.897 79.25,102.917 80.076,102.885 C80.512,102.876 81.165,103.066 81.761,103.109 C82.122,104.222 81.718,107.715 81.743,108.233 C81.826,109.766 82.162,111.588 82.8,113.003 C83.701,114.987 86.232,115.893 88.347,115.751 C96.467,115.21 94.761,103.297 92.711,98.156 C91.592,95.365 88.555,92.414 86.183,90.716 C80.393,86.558 76.951,82.78 76.246,75.326 C75.432,66.7 78.397,57.159 89,59.497 C98.195,61.523 97.982,69.392 98.364,76.654 C97.575,76.631 96.791,76.673 95.982,76.69 C95.335,76.701 94.469,76.57 93.785,76.779 C94.845,72.792 93.818,67.924 90.971,65.058 C88.648,62.718 84.152,64.085 82.977,66.836 C80.263,73.184 81.557,79.158 85.561,84.387 C87.675,87.149 91.801,89.388 94.354,91.949 C97.963,95.56 99.67,103.93 98.566,108.923 C98.557,108.942 98.538,108.948 98.532,108.966 C97.798,111.64 97.959,115.1 95.66,117.035 C92.606,119.6 89.342,121.005 85.281,120.421 C84.046,120.247 83.009,119.929 82.122,119.497 C81.115,118.552 80.114,117.597 79.066,116.733 Z M82.943,103.775 C83.391,104.292 83.856,104.782 84.401,105.214 C84.995,105.678 85.487,106.51 86.148,106.902 C85.75,109.274 85.831,112.711 87.681,114.374 C87.333,114.351 86.995,114.34 86.609,114.253 C82.389,113.289 82.619,107.288 82.943,103.775 Z M99.869,67.174 C99.881,67.191 99.899,67.195 99.913,67.206 C100.606,68.342 101.088,69.379 101.138,70.054 C101.268,71.783 101.734,73.463 102.079,75.154 C102.431,76.888 102.185,78.525 102.206,80.178 C101.908,79.809 101.616,79.434 101.305,79.072 C100.708,78.389 100.266,77.531 99.632,76.893 C99.394,72.002 99.098,67.369 97.145,63.879 C98.162,64.927 99.11,66.029 99.869,67.174 Z M100.235,80.576 C99.271,80.506 98.376,80.75 97.396,80.576 C96.2,80.371 95.158,78.831 94.142,77.762 C94.682,77.779 95.254,77.724 95.709,77.738 C96.822,77.779 97.953,77.779 99.06,77.766 C99.545,78.258 100.021,78.896 100.412,79.391 C100.752,79.823 101.174,80.22 101.585,80.62 C101.138,80.635 100.677,80.606 100.235,80.576 Z M90.573,66.5 C88.128,66.5 87.072,69.568 86.48,71.424 C85.061,75.866 85.862,81.733 88.856,85.466 C88.216,84.998 87.579,84.547 86.972,84.148 C82.967,81.526 82.529,76.479 82.766,72.189 C82.433,68.867 83.683,66.529 86.522,65.18 C87.973,64.712 89.463,65.412 90.601,66.503 C90.591,66.503 90.585,66.5 90.573,66.5 Z" id="Fill-41"></path>
                <path d="M142.901,93.891 C145.709,98.558 147.139,104.161 145.809,109.532 C145.784,109.62 145.715,109.651 145.671,109.711 C144.636,113.64 144.495,116.341 141.095,119.159 C138.838,121.02 135.225,121.978 132.333,121.558 C131.468,121.433 130.704,121.232 129.979,121.005 C131.662,122.411 133.49,123.598 135.734,124.008 C140.734,124.935 146.126,120.254 147.58,115.826 C148.911,111.793 148.93,108.286 148.712,104.042 C148.514,99.931 145.752,96.736 142.901,93.891" id="Fill-42" opacity="0.4"></path>
                <path d="M147.449,79.072 C147.764,79.434 148.057,79.809 148.354,80.178 C148.333,78.525 148.581,76.888 148.228,75.154 C147.879,73.463 147.415,71.783 147.282,70.054 C147.232,69.379 146.754,68.342 146.061,67.206 C146.045,67.195 146.026,67.191 146.017,67.174 C145.254,66.029 144.31,64.927 143.293,63.879 C145.242,67.369 145.54,72.002 145.776,76.893 C146.412,77.531 146.855,78.389 147.449,79.072" id="Fill-43" opacity="0.4"></path>
                <path d="M132.757,114.253 C133.142,114.34 133.478,114.351 133.829,114.374 C131.979,112.711 131.898,109.274 132.296,106.902 C131.631,106.51 131.146,105.678 130.548,105.214 C130.001,104.782 129.536,104.292 129.088,103.775 C128.768,107.288 128.537,113.289 132.757,114.253" id="Fill-45" opacity="0.4"></path>
                <path d="M145.208,77.766 C144.104,77.779 142.966,77.779 141.856,77.738 C141.402,77.724 140.827,77.779 140.292,77.762 C141.307,78.831 142.344,80.371 143.545,80.576 C144.524,80.75 145.423,80.506 146.384,80.576 C146.827,80.606 147.282,80.635 147.735,80.62 C147.319,80.22 146.899,79.823 146.561,79.391 C146.168,78.896 145.693,78.258 145.208,77.766" id="Fill-46" opacity="0.4"></path>
                <path d="M132.669,65.18 C129.833,66.529 128.583,68.867 128.914,72.189 C128.677,76.479 129.113,81.526 133.116,84.148 C133.727,84.547 134.363,84.998 135,85.466 C132.01,81.733 131.208,75.866 132.628,71.424 C133.22,69.568 134.273,66.5 136.72,66.5 C136.729,66.5 136.735,66.503 136.749,66.503 C135.61,65.412 134.125,64.712 132.669,65.18" id="Fill-47" opacity="0.4"></path>
                <path d="M147.58,115.826 C146.126,120.254 140.734,124.935 135.734,124.008 C133.49,123.598 131.662,122.411 129.979,121.005 C130.704,121.232 131.468,121.433 132.333,121.558 C135.225,121.978 138.838,121.02 141.095,119.159 C144.495,116.341 144.636,113.64 145.671,109.711 C145.715,109.651 145.784,109.62 145.809,109.532 C147.139,104.161 145.709,98.558 142.901,93.891 C145.752,96.736 148.514,99.931 148.712,104.042 C148.93,108.286 148.911,111.793 147.58,115.826 Z M125.21,116.733 C122.838,112.947 123.441,107.104 122.58,102.613 C122.801,102.671 123.068,102.724 123.118,102.746 C123.305,102.832 123.554,102.817 123.746,102.832 C124.574,102.897 125.394,102.917 126.222,102.885 C126.656,102.876 127.313,103.066 127.907,103.109 C128.27,104.222 127.863,107.715 127.891,108.233 C127.974,109.766 128.31,111.588 128.948,113.003 C129.849,114.987 132.38,115.893 134.491,115.751 C142.615,115.21 140.909,103.297 138.855,98.156 C137.743,95.365 134.703,92.414 132.331,90.716 C126.539,86.558 123.099,82.78 122.397,75.326 C121.58,66.7 124.542,57.159 135.145,59.497 C144.341,61.523 144.13,69.392 144.509,76.654 C143.722,76.631 142.936,76.673 142.13,76.69 C141.479,76.701 140.615,76.57 139.932,76.779 C140.992,72.792 139.964,67.924 137.121,65.058 C134.795,62.718 130.3,64.085 129.125,66.836 C126.408,73.184 127.701,79.158 131.712,84.387 C133.825,87.149 137.945,89.388 140.501,91.949 C144.11,95.56 145.817,103.93 144.714,108.923 C144.704,108.942 144.686,108.948 144.68,108.966 C143.946,111.64 144.104,115.1 141.804,117.035 C138.75,119.6 135.489,121.005 131.426,120.421 C130.194,120.247 129.156,119.929 128.27,119.497 C127.259,118.552 126.259,117.597 125.21,116.733 Z M129.088,103.775 C129.536,104.292 130.001,104.782 130.548,105.214 C131.146,105.678 131.631,106.51 132.296,106.902 C131.898,109.274 131.979,112.711 133.829,114.374 C133.478,114.351 133.142,114.34 132.757,114.253 C128.537,113.289 128.768,107.288 129.088,103.775 Z M146.017,67.174 C146.026,67.191 146.045,67.195 146.061,67.206 C146.754,68.342 147.232,69.379 147.282,70.054 C147.415,71.783 147.879,73.463 148.228,75.154 C148.581,76.888 148.333,78.525 148.354,80.178 C148.057,79.809 147.764,79.434 147.449,79.072 C146.855,78.389 146.412,77.531 145.776,76.893 C145.54,72.002 145.242,67.369 143.293,63.879 C144.31,64.927 145.254,66.029 146.017,67.174 Z M146.384,80.576 C145.423,80.506 144.524,80.75 143.545,80.576 C142.344,80.371 141.307,78.831 140.292,77.762 C140.827,77.779 141.402,77.724 141.856,77.738 C142.966,77.779 144.104,77.779 145.208,77.766 C145.693,78.258 146.168,78.896 146.561,79.391 C146.899,79.823 147.319,80.22 147.735,80.62 C147.282,80.635 146.827,80.606 146.384,80.576 Z M136.72,66.5 C134.273,66.5 133.22,69.568 132.628,71.424 C131.208,75.866 132.01,81.733 135,85.466 C134.363,84.998 133.727,84.547 133.116,84.148 C129.113,81.526 128.677,76.479 128.914,72.189 C128.583,68.867 129.833,66.529 132.669,65.18 C134.125,64.712 135.61,65.412 136.749,66.503 C136.735,66.503 136.729,66.5 136.72,66.5 Z" id="Fill-48"></path>
                <path d="M176.313,66.427 C175.338,66.505 174.303,66.503 173.323,66.505 C172.217,66.513 171.128,66.505 170.021,66.448 C169.751,66.438 169.483,66.364 169.213,66.293 C170.426,67.008 171.489,68.335 172.161,69.483 C173.053,69.281 174.076,69.443 174.952,69.446 C176.423,69.452 178.332,69.674 179.716,69.003 C178.88,68.208 178.027,67.353 177.353,66.409 C177.03,66.514 176.647,66.402 176.313,66.427" id="Fill-50" opacity="0.4"></path>
                <path d="M180.324,68.181 C180.334,67.628 180.284,66.993 180.282,66.782 C180.272,65.991 180.257,65.171 180.307,64.386 C179.541,63.315 178.624,62.361 177.825,61.312 C177.787,62.214 177.801,63.118 177.819,64.008 C177.825,64.487 177.781,65.16 177.539,65.652 C177.589,65.695 177.626,65.738 177.658,65.799 C178.63,66.459 179.51,67.321 180.324,68.181" id="Fill-51" opacity="0.4"></path>
                <path d="M177.102,65.533 C177.107,65.531 177.116,65.531 177.122,65.529 C177.122,65.523 177.122,65.519 177.122,65.518 C177.116,65.519 177.104,65.529 177.102,65.533" id="Fill-52"></path>
                <path d="M171.11,98.608 C170.73,93.686 170.469,88.605 170.622,83.675 C170.749,79.757 172.096,73.82 171.029,70.083 C170.979,69.901 171.041,69.769 171.132,69.664 C170.78,69.136 170.444,68.596 170.027,68.133 C169.552,67.614 169.182,66.966 168.725,66.428 C169.051,70.171 168.707,74.61 168.383,78.335 C167.92,83.713 168.709,89.051 168.707,94.417 C168.703,99.484 168.951,104.62 169.146,109.689 C169.251,112.449 169.848,117.21 168.753,119.973 C168.903,120.048 168.979,120.184 168.989,120.346 C169.704,120.673 170.429,121.497 170.86,122.034 C171.172,122.421 171.633,122.778 172.011,123.181 C170.681,115.148 171.731,106.704 171.11,98.608" id="Fill-53" opacity="0.4"></path>
                <path d="M162.243,68.646 C162.354,68.629 162.441,68.614 162.528,68.614 C162.532,67.879 162.545,67.141 162.545,66.404 C162.255,66.399 161.819,66.388 161.652,66.393 C160.993,66.409 160.274,66.522 159.625,66.414 C158.786,66.273 157.964,66.427 157.125,66.388 C156.615,66.364 156.104,66.35 155.599,66.35 C155.868,66.578 156.118,66.831 156.379,67.075 C157.038,67.694 157.71,68.295 158.337,68.945 C158.344,68.951 158.341,68.957 158.344,68.966 C158.975,68.679 159.749,68.729 160.421,68.704 C161.023,68.682 161.646,68.764 162.243,68.646" id="Fill-54" opacity="0.4"></path>
                <path d="M170.215,122.528 C169.859,122.065 169.257,121.205 168.697,120.79 C168.647,120.806 168.609,120.849 168.544,120.838 C167.062,120.657 165.561,120.669 164.074,120.557 C164.476,120.862 164.869,121.185 165.246,121.497 C165.657,121.833 166.014,122.217 166.393,122.582 C166.596,122.778 166.996,123.325 167.28,123.406 C167.322,123.424 167.345,123.456 167.376,123.48 C168.001,123.43 168.673,123.554 169.263,123.604 C170.046,123.673 170.811,123.805 171.589,123.921 C171.228,123.43 170.519,122.929 170.215,122.528" id="Fill-55" opacity="0.4"></path>
                <path d="M158.337,68.945 C157.71,68.295 157.038,67.694 156.379,67.075 C156.118,66.831 155.868,66.578 155.599,66.35 C156.104,66.35 156.615,66.364 157.125,66.388 C157.964,66.427 158.786,66.273 159.625,66.414 C160.274,66.522 160.993,66.409 161.652,66.393 C161.819,66.388 162.255,66.399 162.545,66.404 C162.545,67.141 162.532,67.879 162.528,68.614 C162.441,68.614 162.354,68.629 162.243,68.646 C161.646,68.764 161.023,68.682 160.421,68.704 C159.749,68.729 158.975,68.679 158.344,68.966 C158.341,68.957 158.344,68.951 158.337,68.945 Z M154.781,65.429 C154.887,64.879 154.948,64.322 154.998,63.757 C155.073,62.959 154.912,61.763 155.304,61.026 C155.34,60.962 155.321,60.909 155.321,60.846 C159.108,60.737 162.883,60.575 166.67,60.431 C170.084,60.302 173.59,60.805 177.03,60.841 C177.017,61.508 177.054,62.175 176.949,62.828 C176.874,63.321 177.122,63.856 177.082,64.374 C177.066,64.618 177.144,65.103 177.122,65.495 C177.104,65.494 177.082,65.494 176.992,65.502 C176.55,65.535 176.103,65.538 175.664,65.538 C174.76,65.534 173.87,65.614 172.97,65.634 C171.986,65.652 171.004,65.71 170.021,65.752 C169.512,65.779 168.884,65.635 168.377,65.773 C168.212,65.702 168.01,65.718 167.845,65.878 C167.823,65.901 167.802,65.923 167.777,65.944 C167.531,66.183 167.614,66.488 167.808,66.668 C167.702,66.759 167.664,66.927 167.705,67.186 C167.543,68.765 167.509,68.717 167.516,70.091 C167.516,72.363 167.591,74.652 167.466,76.916 C167.18,82.172 167.251,87.562 167.839,92.794 C168.83,101.58 168.623,111.018 168.337,119.874 C167.578,119.761 166.825,119.761 166.055,119.737 C165.265,119.717 164.509,119.774 163.732,119.799 C164.935,117.159 164.184,112.337 163.996,109.825 C163.669,105.243 163.518,100.606 163.343,96.018 C162.983,86.109 163.455,76.217 163.455,66.31 C163.455,66.31 163.455,66.31 163.458,66.306 C163.458,66.262 163.458,66.217 163.458,66.171 C163.458,66.034 163.399,65.934 163.325,65.861 C163.294,65.721 163.219,65.592 163.051,65.529 C162.634,65.362 162.094,65.463 161.652,65.408 C160.915,65.318 160.156,65.362 159.42,65.292 C157.908,65.152 156.285,65.194 154.781,65.429 Z M177.102,65.533 C177.104,65.529 177.116,65.519 177.122,65.518 C177.122,65.519 177.122,65.523 177.122,65.529 C177.116,65.531 177.107,65.531 177.102,65.533 Z M177.353,66.409 C178.027,67.353 178.88,68.208 179.716,69.003 C178.332,69.674 176.423,69.452 174.952,69.446 C174.076,69.443 173.053,69.281 172.161,69.483 C171.489,68.335 170.426,67.008 169.213,66.293 C169.483,66.364 169.751,66.438 170.021,66.448 C171.128,66.505 172.217,66.513 173.323,66.505 C174.303,66.503 175.338,66.505 176.313,66.427 C176.647,66.402 177.03,66.514 177.353,66.409 Z M177.819,64.008 C177.801,63.118 177.787,62.214 177.825,61.312 C178.624,62.361 179.541,63.315 180.307,64.386 C180.257,65.171 180.272,65.991 180.282,66.782 C180.284,66.993 180.334,67.628 180.324,68.181 C179.51,67.321 178.63,66.459 177.658,65.799 C177.626,65.738 177.589,65.695 177.539,65.652 C177.781,65.16 177.825,64.487 177.819,64.008 Z M172.011,123.181 C171.633,122.778 171.172,122.421 170.86,122.034 C170.429,121.497 169.704,120.673 168.989,120.346 C168.979,120.184 168.903,120.048 168.753,119.973 C169.848,117.21 169.251,112.449 169.146,109.689 C168.951,104.62 168.703,99.484 168.707,94.417 C168.709,89.051 167.92,83.713 168.383,78.335 C168.707,74.61 169.051,70.171 168.725,66.428 C169.182,66.966 169.552,67.614 170.027,68.133 C170.444,68.596 170.78,69.136 171.132,69.664 C171.041,69.769 170.979,69.901 171.029,70.083 C172.096,73.82 170.749,79.757 170.622,83.675 C170.469,88.605 170.73,93.686 171.11,98.608 C171.731,106.704 170.681,115.148 172.011,123.181 Z M169.263,123.604 C168.673,123.554 168.001,123.43 167.376,123.48 C167.345,123.456 167.322,123.424 167.28,123.406 C166.996,123.325 166.596,122.778 166.393,122.582 C166.014,122.217 165.657,121.833 165.246,121.497 C164.869,121.185 164.476,120.862 164.074,120.557 C165.561,120.669 167.062,120.657 168.544,120.838 C168.609,120.849 168.647,120.806 168.697,120.79 C169.257,121.205 169.859,122.065 170.215,122.528 C170.519,122.929 171.228,123.43 171.589,123.921 C170.811,123.805 170.046,123.673 169.263,123.604 Z" id="Fill-56"></path>
                <path d="M68.238,118.809 C71.244,114.032 71.722,105.889 71.613,100.187 C71.486,93.733 71.321,87.317 71.1,80.861 C70.942,76.231 71.996,70.091 70.65,65.669 C70.627,65.604 70.668,65.567 70.668,65.507 C69.829,64.674 69.188,63.674 68.38,62.819 C68.029,62.444 67.733,61.859 67.379,61.383 C68.196,67.211 67.435,73.419 67.603,79.278 C67.814,86.655 68.396,94.709 67.898,102.077 C67.329,110.549 66.427,122.569 55.098,121.298 C53.568,121.608 51.906,121.491 50.374,120.965 C51.235,121.652 52.116,122.311 53.057,122.868 C58.509,126.091 65.009,123.946 68.238,118.809" id="Fill-57" opacity="0.400000006"></path>
                <path d="M50.523,109.002 C50.734,110.633 51.434,112.101 52.609,113.398 C53.342,113.438 54.013,113.45 54.656,113.431 C54.03,112.349 53.845,111.038 53.812,109.632 C53.689,104.882 53.914,100.124 53.783,95.386 C53.625,89.987 52.876,84.228 53.412,78.832 C53.845,74.511 54.278,69.328 53.625,65.008 C53.468,64.913 53.359,64.77 53.402,64.568 C53.343,64.865 52.334,63.771 52.252,63.672 C51.875,63.232 51.473,62.814 51.086,62.384 C50.798,62.065 50.535,61.728 50.25,61.402 C51.188,69.982 50.68,78.895 50.304,87.498 C50.13,91.487 50.105,95.6 50.397,99.578 C50.625,102.68 49.738,105.921 50.523,109.002" id="Fill-58" opacity="0.4"></path>
                <path d="M53.057,122.868 C52.116,122.311 51.235,121.652 50.374,120.965 C51.906,121.491 53.568,121.608 55.098,121.298 C66.427,122.569 67.329,110.549 67.898,102.077 C68.396,94.709 67.814,86.655 67.603,79.278 C67.435,73.419 68.196,67.211 67.379,61.383 C67.733,61.859 68.029,62.444 68.38,62.819 C69.188,63.674 69.829,64.674 70.668,65.507 C70.668,65.567 70.627,65.604 70.65,65.669 C71.996,70.091 70.942,76.231 71.1,80.861 C71.321,87.317 71.486,93.733 71.613,100.187 C71.722,105.889 71.244,114.032 68.238,118.809 C65.009,123.946 58.509,126.091 53.057,122.868 Z M44.819,90.729 C44.841,85 44.76,79.284 44.745,73.557 C44.74,70.855 44.789,68.159 44.764,65.455 C44.753,64.131 44.905,62.86 45.029,61.534 C45.075,61.052 45.05,60.994 44.979,61.065 C45.021,60.97 45.056,60.862 45.013,60.727 C44.999,60.691 44.984,60.652 44.975,60.615 C45.979,60.537 46.984,60.487 47.986,60.663 C48.428,60.741 48.91,60.79 49.386,60.786 C48.791,66.498 49.986,72.412 49.597,78.164 C49.247,83.345 49.397,88.51 49.397,93.701 C49.397,98.573 46.772,118.033 56.465,115.5 C60.67,114.401 61.702,112.075 61.988,107.96 C62.324,103.258 61.577,98.352 61.751,93.589 C62.131,83.352 61.341,73.015 62.074,62.786 C62.162,62.412 62.18,62.051 62.156,61.681 C62.184,61.32 62.199,60.955 62.237,60.596 C62.833,60.746 63.434,60.919 64.058,60.971 C64.55,61.009 65.053,61.024 65.545,60.988 C65.7,60.98 65.955,60.94 66.194,60.922 C66.2,60.929 66.191,60.93 66.191,60.936 C67.944,71.473 66.285,83.153 66.565,93.8 C66.705,99.266 66.776,104.484 66.129,109.918 C65.576,114.606 64.002,118.394 59.053,119.808 C57.418,120.275 55.754,120.757 54.093,121.084 C54.078,121.086 54.101,121.098 54.093,121.105 C41.304,121.211 44.783,99.292 44.819,90.729 Z M50.418,87.498 C50.758,78.895 51.224,69.982 50.369,61.402 C50.63,61.728 50.87,62.065 51.131,62.384 C51.482,62.814 51.851,63.232 52.192,63.672 C52.269,63.771 53.188,64.865 53.238,64.568 C53.202,64.77 53.301,64.913 53.445,65.008 C54.04,69.328 53.646,74.511 53.25,78.832 C52.764,84.228 53.445,89.987 53.584,95.386 C53.706,100.124 53.503,104.882 53.612,109.632 C53.646,111.038 53.815,112.349 54.387,113.431 C53.799,113.45 53.186,113.438 52.518,113.398 C51.449,112.101 50.811,110.633 50.618,109.002 C49.903,105.921 50.709,102.68 50.503,99.578 C50.236,95.6 50.258,91.487 50.418,87.498 Z" id="Fill-60"></path>
                <path d="M142.407,14.372 C142.799,14.748 143.178,15.138 143.56,15.527 C143.569,15.214 143.514,14.876 143.523,14.594 C143.532,14.198 143.613,13.755 143.616,13.334 C143.575,13.315 143.532,13.301 143.501,13.252 C143.246,12.833 142.761,12.6 142.438,12.254 C142.14,11.934 141.8,11.706 141.521,11.406 C141.673,12.107 141.798,13.009 141.518,13.604 C141.854,13.802 142.121,14.094 142.407,14.372" id="Fill-62"></path>
                <path d="M137.103,20.995 C137.09,20.378 137.054,19.758 137.016,19.143 C136.96,18.264 136.724,17.241 137.034,16.388 C137.04,16.369 137.06,16.355 137.071,16.339 C136.77,16.174 136.543,15.826 136.295,15.615 C135.915,15.294 135.554,14.945 135.231,14.566 C135.439,16.664 135.486,18.837 135.442,20.938 C135.431,21.45 135.511,22.674 135.228,23.415 C135.548,23.32 135.871,23.177 136.213,23.199 C136.456,23.211 136.692,23.237 136.931,23.265 C136.898,23.174 136.91,23.051 137.01,22.992 C137.202,22.869 137.103,21.242 137.103,20.995" id="Fill-64"></path>
                <path d="M135.219,26.9 C135.277,27.494 135.219,28.179 135.219,28.722 C135.225,29.62 135.365,30.522 135.365,31.424 C135.368,32.829 135.331,34.358 135.063,35.745 C135.237,35.705 135.431,35.706 135.648,35.678 C136.132,35.615 136.612,35.623 137.094,35.65 C136.904,34.613 137.19,33.513 137.097,32.463 C137.04,31.842 136.919,31.201 136.954,30.574 C136.99,29.989 137.103,29.397 137.121,28.812 C136.425,28.273 135.778,27.596 135.219,26.9" id="Fill-65"></path>
                <path d="M138.896,39.046 C137.598,38.882 136.22,38.94 134.908,38.962 C134.428,38.968 133.521,38.789 132.849,38.8 C133.104,38.957 133.335,39.166 133.527,39.351 C133.823,39.643 134.134,39.926 134.407,40.241 C134.591,40.45 134.82,40.541 135.02,40.733 C136.132,40.418 137.612,40.702 138.688,40.756 C139.311,40.785 140.006,40.665 140.622,40.766 C141.207,40.863 142.151,40.987 142.854,40.84 C142.584,40.566 142.385,40.194 142.107,39.937 C141.835,39.689 141.561,39.439 141.328,39.148 C141.293,39.106 141.281,39.057 141.257,39.011 C140.655,39.32 139.449,39.113 138.896,39.046" id="Fill-66"></path>
                <path d="M142.397,27.747 C142.413,27.58 142.432,27.416 142.441,27.283 C142.473,26.794 142.357,26.316 142.394,25.832 C142.08,25.687 141.788,25.301 141.593,25.114 C141.356,24.885 141.145,24.64 140.909,24.406 C140.915,24.874 140.868,25.369 140.83,25.782 C140.814,25.951 140.778,26.104 140.723,26.243 C141.39,26.526 141.915,27.185 142.397,27.747" id="Fill-67"></path>
                <path d="M137.501,26.502 C136.866,26.485 136.226,26.492 135.586,26.504 C136.32,27.15 136.954,27.907 137.743,28.485 C137.737,28.489 137.73,28.497 137.725,28.501 C137.753,28.515 137.777,28.512 137.799,28.53 C138.72,28.309 139.689,28.518 140.615,28.445 C140.985,28.412 141.325,28.412 141.694,28.417 C141.77,28.417 141.825,28.413 141.879,28.406 C141.328,27.833 140.79,27.231 140.317,26.599 C140.258,26.616 140.212,26.639 140.137,26.643 C139.248,26.696 138.387,26.526 137.501,26.502" id="Fill-68"></path>
                <path d="M143.246,40.324 C143.283,40.003 143.141,39.634 143.184,39.328 C143.277,38.691 143.128,38.515 142.739,38.061 C142.354,37.608 142.016,37.073 141.633,36.599 C141.636,37.197 141.72,38.178 141.577,38.649 C141.909,38.919 142.221,39.243 142.531,39.517 C142.811,39.761 143.022,40.044 143.246,40.324" id="Fill-69"></path>
                <path d="M138.141,14.178 C137.383,14.148 136.313,14.161 135.529,14.292 C135.828,14.525 136.126,14.76 136.425,14.992 C136.614,15.138 136.841,15.277 137,15.459 C137.06,15.525 137.271,15.83 137.346,15.837 C137.433,15.842 137.491,15.885 137.538,15.935 C137.864,15.922 138.216,15.797 138.545,15.832 C139.105,15.89 139.603,15.943 140.162,15.899 C140.715,15.859 141.269,15.785 141.821,15.785 C142.14,15.783 142.444,15.723 142.749,15.67 C142.473,15.4 142.195,15.129 141.929,14.851 C141.673,14.585 141.424,14.278 141.157,14.013 C140.989,14.123 140.79,14.207 140.517,14.211 C139.751,14.232 138.905,14.207 138.141,14.178" id="Fill-70"></path>
                <path d="M132.659,26.666 C132.521,23.94 132.757,21.202 132.532,18.487 C132.346,16.227 132.246,13.817 132.501,11.554 C132.557,11.474 132.563,11.376 132.536,11.279 C133.148,11.384 133.708,11.537 134.355,11.547 C135.225,11.56 136.136,11.4 137.004,11.321 C138.303,11.205 139.608,11.258 140.896,11.392 C140.909,11.454 140.93,11.514 140.977,11.56 C141.122,12.33 141.309,13.693 140.273,13.54 C139.761,13.463 139.263,13.519 138.744,13.475 C138.051,13.419 137.339,13.604 136.645,13.608 C136.462,13.608 135.439,13.774 135.427,13.767 C135.325,13.727 135.187,13.712 135.106,13.812 C135.066,13.758 135,13.75 134.923,13.786 C134.845,13.783 134.802,13.824 134.771,13.874 C134.703,13.913 134.653,13.976 134.659,14.08 C134.795,15.877 134.833,17.793 134.714,19.59 C134.637,20.743 134.485,22.303 134.739,23.488 C134.739,23.488 134.739,23.488 134.737,23.488 C134.631,23.484 134.597,23.633 134.687,23.683 C134.722,23.7 134.752,23.7 134.78,23.713 C134.789,23.753 134.793,23.804 134.805,23.845 C134.818,23.885 134.87,23.92 134.914,23.89 C134.951,23.863 134.973,23.821 135.007,23.785 C135.169,23.819 135.331,23.83 135.521,23.834 C136.164,23.838 136.798,23.904 137.438,23.989 C138.371,24.114 139.354,24.236 140.292,24.129 C140.299,24.129 140.308,24.127 140.313,24.127 C140.33,24.457 140.192,25.367 140.202,25.552 C140.242,26.31 138.905,25.932 138.421,25.933 C137.346,25.942 136.235,25.874 135.181,26.166 C135.145,26.138 135.106,26.104 135.069,26.074 C134.964,25.998 134.839,26.077 134.789,26.184 C134.625,26.21 134.476,26.351 134.522,26.564 C134.659,27.175 134.534,28.09 134.532,28.722 C134.528,29.719 134.665,30.715 134.665,31.705 C134.665,32.659 134.522,33.593 134.551,34.549 C134.563,34.946 134.501,35.559 134.693,35.961 C134.609,36.064 134.712,36.188 134.833,36.15 C134.876,36.168 134.914,36.164 134.951,36.132 C135.287,36.062 135.978,36.174 136.257,36.178 C136.885,36.188 137.513,36.277 138.141,36.339 C139.1,36.432 140.101,36.272 141.057,36.411 C141.021,36.786 140.989,37.152 140.995,37.533 C141.005,38.218 141.166,38.536 140.354,38.539 C139.157,38.544 137.974,38.399 136.773,38.501 C135.514,38.61 134.209,38.387 132.943,38.459 C132.899,38.463 132.523,38.529 132.325,38.591 C132.317,38.591 132.315,38.59 132.315,38.59 C132.632,36.764 132.415,34.853 132.644,33.01 C132.899,30.987 132.769,28.709 132.659,26.666 Z M136.931,23.265 C136.692,23.237 136.456,23.211 136.213,23.199 C135.871,23.177 135.548,23.32 135.228,23.415 C135.511,22.674 135.431,21.45 135.442,20.938 C135.486,18.837 135.439,16.664 135.231,14.566 C135.554,14.945 135.915,15.294 136.295,15.615 C136.543,15.826 136.77,16.174 137.071,16.339 C137.06,16.355 137.04,16.369 137.034,16.388 C136.724,17.241 136.96,18.264 137.016,19.143 C137.054,19.758 137.09,20.378 137.103,20.995 C137.103,21.242 137.202,22.869 137.01,22.992 C136.91,23.051 136.898,23.174 136.931,23.265 Z M141.929,14.851 C142.195,15.129 142.473,15.4 142.749,15.67 C142.444,15.723 142.14,15.783 141.821,15.785 C141.269,15.785 140.715,15.859 140.162,15.899 C139.603,15.943 139.105,15.89 138.545,15.832 C138.216,15.797 137.864,15.922 137.538,15.935 C137.491,15.885 137.433,15.842 137.346,15.837 C137.271,15.83 137.06,15.525 137,15.459 C136.841,15.277 136.614,15.138 136.425,14.992 C136.126,14.76 135.828,14.525 135.529,14.292 C136.313,14.161 137.383,14.148 138.141,14.178 C138.905,14.207 139.751,14.232 140.517,14.211 C140.79,14.207 140.989,14.123 141.157,14.013 C141.424,14.278 141.673,14.585 141.929,14.851 Z M141.521,11.406 C141.8,11.706 142.14,11.934 142.438,12.254 C142.761,12.6 143.246,12.833 143.501,13.252 C143.532,13.301 143.575,13.315 143.616,13.334 C143.613,13.755 143.532,14.198 143.523,14.594 C143.514,14.876 143.569,15.214 143.56,15.527 C143.178,15.138 142.799,14.748 142.407,14.372 C142.121,14.094 141.854,13.802 141.518,13.604 C141.798,13.009 141.673,12.107 141.521,11.406 Z M137.097,32.463 C137.19,33.513 136.904,34.613 137.094,35.65 C136.612,35.623 136.132,35.615 135.648,35.678 C135.431,35.706 135.237,35.705 135.063,35.745 C135.331,34.358 135.368,32.829 135.365,31.424 C135.365,30.522 135.225,29.62 135.219,28.722 C135.219,28.179 135.277,27.494 135.219,26.9 C135.778,27.596 136.425,28.273 137.121,28.812 C137.103,29.397 136.99,29.989 136.954,30.574 C136.919,31.201 137.04,31.842 137.097,32.463 Z M141.879,28.406 C141.825,28.413 141.77,28.417 141.694,28.417 C141.325,28.412 140.985,28.412 140.615,28.445 C139.689,28.518 138.72,28.309 137.799,28.53 C137.777,28.512 137.753,28.515 137.725,28.501 C137.73,28.497 137.737,28.489 137.743,28.485 C136.954,27.907 136.32,27.15 135.586,26.504 C136.226,26.492 136.866,26.485 137.501,26.502 C138.387,26.526 139.248,26.696 140.137,26.643 C140.212,26.639 140.258,26.616 140.317,26.599 C140.79,27.231 141.328,27.833 141.879,28.406 Z M140.83,25.782 C140.868,25.369 140.915,24.874 140.909,24.406 C141.145,24.64 141.356,24.885 141.593,25.114 C141.788,25.301 142.08,25.687 142.394,25.832 C142.357,26.316 142.473,26.794 142.441,27.283 C142.432,27.416 142.413,27.58 142.397,27.747 C141.915,27.185 141.39,26.526 140.723,26.243 C140.778,26.104 140.814,25.951 140.83,25.782 Z M141.328,39.148 C141.561,39.439 141.835,39.689 142.107,39.937 C142.385,40.194 142.584,40.566 142.854,40.84 C142.151,40.987 141.207,40.863 140.622,40.766 C140.006,40.665 139.311,40.785 138.688,40.756 C137.612,40.702 136.132,40.418 135.02,40.733 C134.82,40.541 134.591,40.45 134.407,40.241 C134.134,39.926 133.823,39.643 133.527,39.351 C133.335,39.166 133.104,38.957 132.849,38.8 C133.521,38.789 134.428,38.968 134.908,38.962 C136.22,38.94 137.598,38.882 138.896,39.046 C139.449,39.113 140.655,39.32 141.257,39.011 C141.281,39.057 141.293,39.106 141.328,39.148 Z M141.633,36.599 C142.016,37.073 142.354,37.608 142.739,38.061 C143.128,38.515 143.277,38.691 143.184,39.328 C143.141,39.634 143.283,40.003 143.246,40.324 C143.022,40.044 142.811,39.761 142.531,39.517 C142.221,39.243 141.909,38.919 141.577,38.649 C141.72,38.178 141.636,37.197 141.633,36.599 Z" id="Fill-71"></path>
                <path d="M119.251,24.217 C119.661,24.125 120.221,24.185 120.65,24.222 C120.653,24.215 120.646,24.208 120.65,24.2 C120.849,23.375 120.65,22.278 120.675,21.427 C120.7,20.528 120.709,19.631 120.709,18.732 C120.711,17.154 120.613,15.576 120.631,14.003 C120.4,13.802 120.183,13.439 120.028,13.257 C119.835,13.021 119.68,12.761 119.487,12.524 C119.375,12.385 119.251,12.275 119.121,12.176 C119.182,14.38 119.04,16.669 118.996,18.872 C118.961,20.576 119.57,22.531 119.251,24.217" id="Fill-72"></path>
                <path d="M126.831,26.92 C127.004,29.091 127.204,31.36 127.148,33.54 C127.098,35.421 127.38,37.509 126.775,39.327 C126.796,39.38 126.8,39.431 126.787,39.486 C126.967,39.574 127.135,39.672 127.291,39.815 C127.501,40.008 127.888,40.541 128.174,40.612 C128.245,40.63 128.279,40.674 128.314,40.716 C128.006,36.443 128.21,32.073 128.316,27.808 C128.429,23.356 128.969,18.564 128.481,14.134 C128.214,13.833 127.962,13.525 127.68,13.234 C127.496,13.048 127.303,12.862 127.098,12.698 C127.054,12.666 127.023,12.626 126.989,12.591 C126.762,14.648 126.881,16.916 126.893,18.967 C126.914,21.597 126.625,24.311 126.831,26.92" id="Fill-73"></path>
                <path d="M126.576,39.689 C125.966,39.846 125.325,39.681 124.697,39.633 C124.928,39.828 125.145,40.047 125.4,40.215 C125.661,40.388 125.907,40.58 126.159,40.773 C126.268,40.855 126.401,41.042 126.535,41.061 C126.532,41.067 126.526,41.076 126.523,41.083 C126.563,41.092 126.612,41.089 126.65,41.125 C126.65,41.125 126.65,41.13 126.65,41.134 C126.806,41.072 126.971,41.026 127.123,40.966 C127.291,40.902 127.496,40.966 127.676,40.944 C127.542,40.828 127.428,40.689 127.31,40.557 C127.054,40.275 126.825,39.972 126.576,39.689" id="Fill-74"></path>
                <path d="M123.75,27.549 C123.05,27.669 122.254,27.544 121.558,27.535 C121.097,27.527 120.65,27.578 120.189,27.582 C120.115,27.582 119.953,27.562 119.779,27.54 C120.379,27.958 120.957,28.392 121.501,28.898 C122.183,28.492 123.134,28.815 123.858,28.9 C123.821,28.451 123.784,28.003 123.75,27.549" id="Fill-76"></path>
                <path d="M119.269,27.611 C119.332,30.37 119.161,33.107 119.276,35.862 C119.301,36.509 119.941,38.66 119.384,39.431 C119.428,39.446 119.474,39.455 119.512,39.482 C119.683,39.591 119.829,39.775 120.003,39.868 C120.268,40.011 120.488,40.253 120.744,40.417 C120.376,38.648 120.609,36.417 120.725,34.679 C120.836,32.936 120.615,31.026 121.042,29.322 C120.681,28.944 120.317,28.603 119.919,28.266 C119.674,28.056 119.462,27.843 119.269,27.611" id="Fill-77"></path>
                <path d="M119.102,39.73 C119.061,39.774 119.002,39.804 118.921,39.799 C118.38,39.769 117.852,39.706 117.311,39.675 C117.162,39.666 117.031,39.675 116.906,39.683 C117.121,39.796 117.323,39.923 117.513,40.058 C117.746,40.227 118.01,40.407 118.218,40.602 C118.324,40.697 118.785,41.012 118.731,41.037 C118.804,40.999 118.884,41.012 118.946,41.061 C119.163,40.981 119.378,40.913 119.618,40.894 C119.87,40.872 120.093,40.827 120.314,40.771 C120.214,40.712 120.122,40.65 120.047,40.57 C119.782,40.284 119.447,39.959 119.102,39.73" id="Fill-78"></path>
                <path d="M126.445,12.691 C126.42,12.528 126.398,12.62 126.445,12.691" id="Fill-79"></path>
                <path d="M121.501,28.898 C120.957,28.392 120.379,27.958 119.779,27.54 C119.953,27.562 120.115,27.582 120.189,27.582 C120.65,27.578 121.097,27.527 121.558,27.535 C122.254,27.544 123.05,27.669 123.75,27.549 C123.784,28.003 123.821,28.451 123.858,28.9 C123.134,28.815 122.183,28.492 121.501,28.898 Z M120.725,34.679 C120.609,36.417 120.376,38.648 120.744,40.417 C120.488,40.253 120.268,40.011 120.003,39.868 C119.829,39.775 119.683,39.591 119.512,39.482 C119.474,39.455 119.428,39.446 119.384,39.431 C119.941,38.66 119.301,36.509 119.276,35.862 C119.161,33.107 119.332,30.37 119.269,27.611 C119.462,27.843 119.674,28.056 119.919,28.266 C120.317,28.603 120.681,28.944 121.042,29.322 C120.615,31.026 120.836,32.936 120.725,34.679 Z M119.618,40.894 C119.378,40.913 119.163,40.981 118.946,41.061 C118.884,41.012 118.804,40.999 118.731,41.037 C118.785,41.012 118.324,40.697 118.218,40.602 C118.01,40.407 117.746,40.227 117.513,40.058 C117.323,39.923 117.121,39.796 116.906,39.683 C117.031,39.675 117.162,39.666 117.311,39.675 C117.852,39.706 118.38,39.769 118.921,39.799 C119.002,39.804 119.061,39.774 119.102,39.73 C119.447,39.959 119.782,40.284 120.047,40.57 C120.122,40.65 120.214,40.712 120.314,40.771 C120.093,40.827 119.87,40.872 119.618,40.894 Z M116.403,38.361 C116.318,37.067 116.428,35.775 116.284,34.492 C116.055,32.405 116.309,30.05 116.297,27.945 C116.278,25.12 116.229,22.254 116.415,19.431 C116.57,17.103 116.39,14.719 116.583,12.406 C116.686,12.444 116.791,12.485 116.895,12.496 C117.118,12.524 117.352,12.572 117.578,12.518 C117.78,12.466 118.022,12.383 118.216,12.29 C118.354,12.222 118.504,12.212 118.648,12.185 C118.769,13.192 118.57,14.32 118.573,15.329 C118.579,16.511 118.567,17.691 118.567,18.872 C118.56,20.581 118.921,22.531 118.704,24.213 C118.691,24.327 118.747,24.406 118.815,24.466 C118.775,24.564 118.865,24.676 118.983,24.622 C119.138,24.548 119.568,24.688 119.757,24.687 C120.271,24.677 120.824,24.776 121.343,24.785 C121.825,24.797 122.31,24.864 122.789,24.844 C123.187,24.828 123.579,24.743 123.977,24.761 C124.054,24.772 124.132,24.749 124.203,24.68 L124.207,24.676 C124.355,24.528 124.293,24.313 124.142,24.222 C124.585,22.622 124.293,20.591 124.324,18.96 C124.359,16.721 124.486,14.445 124.418,12.204 C124.418,12.185 124.403,12.182 124.399,12.166 C124.707,12.183 125.016,12.269 125.319,12.299 C125.687,12.34 126.059,12.33 126.43,12.324 C126.37,12.545 126.645,12.774 126.843,12.576 C126.601,12.812 126.495,12.762 126.445,12.691 C126.466,12.812 126.489,13.076 126.482,13.603 C126.476,14.866 126.398,16.111 126.424,17.381 C126.479,19.973 126.047,22.641 126.33,25.213 C126.563,27.312 126.374,29.608 126.514,31.74 C126.678,34.176 126.743,36.779 126.42,39.208 C125.973,39.337 125.375,39.307 124.925,39.293 C124.68,39.287 124.468,39.279 124.272,39.334 C124.263,39.332 124.257,39.327 124.247,39.322 C124.443,35.277 124.38,31.31 124.278,27.265 C124.274,27.134 124.182,27.045 124.076,27.012 C124.026,26.953 123.955,26.91 123.861,26.904 C123.852,26.904 123.846,26.904 123.836,26.903 C123.815,26.901 123.792,26.924 123.768,26.934 C123.771,26.927 123.777,26.92 123.784,26.914 C123.099,27.07 122.257,26.865 121.558,26.856 C120.725,26.842 119.891,26.904 119.061,26.869 C118.952,26.864 118.85,26.932 118.796,27.021 L118.697,27.186 C118.629,27.301 118.673,27.422 118.76,27.499 C118.716,29.493 118.852,31.474 118.654,33.466 C118.554,34.468 118.66,35.765 118.781,36.771 C118.827,37.146 119.284,38.941 118.89,39.254 C118.474,39.239 118.063,39.225 117.644,39.206 C117.217,39.185 116.832,39.332 116.422,39.351 C116.48,39.032 116.424,38.711 116.403,38.361 Z M119.121,12.176 C119.251,12.275 119.375,12.385 119.487,12.524 C119.68,12.761 119.835,13.021 120.028,13.257 C120.183,13.439 120.4,13.802 120.631,14.003 C120.613,15.576 120.711,17.154 120.709,18.732 C120.709,19.631 120.7,20.528 120.675,21.427 C120.65,22.278 120.849,23.375 120.65,24.2 C120.646,24.208 120.653,24.215 120.65,24.222 C120.221,24.185 119.661,24.125 119.251,24.217 C119.57,22.531 118.961,20.576 118.996,18.872 C119.04,16.669 119.182,14.38 119.121,12.176 Z M126.989,12.591 C127.023,12.626 127.054,12.666 127.098,12.698 C127.303,12.862 127.496,13.048 127.68,13.234 C127.962,13.525 128.214,13.833 128.481,14.134 C128.969,18.564 128.429,23.356 128.316,27.808 C128.21,32.073 128.006,36.443 128.314,40.716 C128.279,40.674 128.245,40.63 128.174,40.612 C127.888,40.541 127.501,40.008 127.291,39.815 C127.135,39.672 126.967,39.574 126.787,39.486 C126.8,39.431 126.796,39.38 126.775,39.327 C127.38,37.509 127.098,35.421 127.148,33.54 C127.204,31.36 127.004,29.091 126.831,26.92 C126.625,24.311 126.914,21.597 126.893,18.967 C126.881,16.916 126.762,14.648 126.989,12.591 Z M127.123,40.966 C126.971,41.026 126.806,41.072 126.65,41.134 C126.65,41.13 126.65,41.127 126.65,41.127 C126.612,41.089 126.563,41.092 126.523,41.083 C126.526,41.076 126.532,41.067 126.535,41.061 C126.401,41.042 126.268,40.855 126.159,40.773 C125.907,40.58 125.661,40.388 125.4,40.215 C125.145,40.047 124.928,39.828 124.697,39.633 C125.325,39.681 125.966,39.846 126.576,39.689 C126.825,39.972 127.054,40.275 127.31,40.557 C127.428,40.689 127.542,40.828 127.676,40.944 C127.496,40.966 127.291,40.902 127.123,40.966 Z" id="Fill-80"></path>
                <path d="M111.099,14.641 C110.651,14.679 110.172,14.676 109.724,14.679 C109.215,14.681 108.714,14.679 108.205,14.652 C108.08,14.647 107.959,14.612 107.834,14.58 C108.391,14.908 108.882,15.519 109.19,16.048 C109.6,15.954 110.07,16.029 110.474,16.03 C111.149,16.033 112.029,16.137 112.665,15.827 C112.28,15.463 111.889,15.068 111.578,14.635 C111.428,14.681 111.255,14.631 111.099,14.641" id="Fill-82"></path>
                <path d="M112.945,15.448 C112.951,15.194 112.926,14.902 112.924,14.806 C112.92,14.441 112.915,14.064 112.934,13.703 C112.584,13.211 112.162,12.771 111.795,12.289 C111.776,12.703 111.783,13.119 111.792,13.529 C111.795,13.75 111.776,14.059 111.664,14.284 C111.687,14.305 111.702,14.325 111.718,14.353 C112.166,14.656 112.569,15.053 112.945,15.448" id="Fill-83"></path>
                <path d="M111.459,14.23 C111.466,14.229 111.466,14.229 111.472,14.228 C111.472,14.225 111.472,14.224 111.472,14.224 C111.472,14.224 111.466,14.228 111.459,14.23" id="Fill-84"></path>
                <path d="M108.704,29.444 C108.531,27.181 108.41,24.844 108.481,22.575 C108.541,20.773 109.159,18.044 108.667,16.324 C108.646,16.24 108.673,16.179 108.717,16.132 C108.556,15.887 108.4,15.638 108.207,15.427 C107.99,15.188 107.819,14.89 107.611,14.643 C107.759,16.363 107.598,18.405 107.448,20.119 C107.237,22.593 107.604,25.05 107.598,27.518 C107.598,29.848 107.716,32.211 107.803,34.542 C107.853,35.813 108.126,38.001 107.623,39.273 C107.691,39.308 107.729,39.37 107.729,39.445 C108.059,39.594 108.393,39.973 108.593,40.22 C108.733,40.398 108.944,40.564 109.121,40.747 C108.508,37.052 108.99,33.17 108.704,29.444" id="Fill-85"></path>
                <path d="M104.626,15.664 C104.678,15.654 104.719,15.648 104.757,15.648 C104.763,15.309 104.766,14.971 104.766,14.631 C104.632,14.629 104.433,14.625 104.355,14.625 C104.054,14.635 103.721,14.683 103.422,14.636 C103.038,14.57 102.661,14.641 102.275,14.625 C102.039,14.612 101.803,14.606 101.57,14.606 C101.697,14.711 101.809,14.828 101.927,14.941 C102.231,15.225 102.542,15.5 102.829,15.801 C102.834,15.804 102.832,15.807 102.834,15.809 C103.127,15.678 103.481,15.701 103.789,15.69 C104.065,15.681 104.352,15.719 104.626,15.664" id="Fill-86"></path>
                <path d="M108.295,40.448 C108.132,40.237 107.853,39.84 107.594,39.649 C107.573,39.655 107.554,39.676 107.526,39.672 C106.845,39.588 106.155,39.593 105.471,39.54 C105.654,39.681 105.834,39.832 106.009,39.973 C106.199,40.127 106.361,40.304 106.535,40.473 C106.628,40.562 106.814,40.814 106.945,40.852 C106.964,40.86 106.976,40.875 106.989,40.887 C107.275,40.863 107.586,40.922 107.855,40.944 C108.214,40.975 108.568,41.037 108.925,41.089 C108.76,40.863 108.434,40.633 108.295,40.448" id="Fill-87"></path>
                <path d="M102.829,15.801 C102.542,15.5 102.231,15.225 101.927,14.941 C101.809,14.828 101.697,14.711 101.57,14.606 C101.803,14.606 102.039,14.612 102.275,14.625 C102.661,14.641 103.038,14.57 103.422,14.636 C103.721,14.683 104.054,14.635 104.355,14.625 C104.433,14.625 104.632,14.629 104.766,14.631 C104.766,14.971 104.763,15.309 104.757,15.648 C104.719,15.648 104.678,15.654 104.626,15.664 C104.352,15.719 104.065,15.681 103.789,15.69 C103.481,15.701 103.127,15.678 102.834,15.809 C102.832,15.807 102.834,15.804 102.829,15.801 Z M101.193,14.182 C101.243,13.931 101.271,13.674 101.293,13.414 C101.33,13.048 101.255,12.496 101.436,12.158 C101.451,12.127 101.441,12.104 101.441,12.074 C103.186,12.024 104.92,11.95 106.665,11.884 C108.235,11.824 109.849,12.057 111.428,12.072 C111.422,12.379 111.441,12.685 111.391,12.987 C111.36,13.213 111.472,13.459 111.453,13.698 C111.443,13.811 111.481,14.035 111.472,14.214 C111.466,14.214 111.453,14.214 111.409,14.216 C111.207,14.232 111.002,14.234 110.8,14.234 C110.383,14.232 109.976,14.269 109.563,14.278 C109.109,14.284 108.654,14.313 108.205,14.332 C107.971,14.341 107.682,14.279 107.448,14.341 C107.375,14.308 107.281,14.316 107.206,14.389 C107.194,14.401 107.185,14.409 107.175,14.42 C107.06,14.53 107.1,14.671 107.187,14.752 C107.138,14.795 107.119,14.872 107.138,14.99 C107.066,15.719 107.05,15.695 107.05,16.325 C107.05,17.372 107.088,18.424 107.031,19.468 C106.898,21.885 106.933,24.365 107.2,26.77 C107.66,30.812 107.561,35.155 107.43,39.225 C107.081,39.175 106.737,39.176 106.379,39.166 C106.019,39.156 105.671,39.18 105.312,39.193 C105.867,37.977 105.521,35.76 105.435,34.604 C105.285,32.498 105.216,30.365 105.135,28.255 C104.968,23.696 105.185,19.145 105.185,14.589 L105.185,14.586 C105.185,14.566 105.185,14.546 105.185,14.525 C105.185,14.46 105.16,14.415 105.124,14.382 C105.11,14.318 105.074,14.256 104.999,14.228 C104.807,14.153 104.557,14.199 104.355,14.173 C104.016,14.133 103.668,14.153 103.33,14.118 C102.632,14.057 101.887,14.075 101.193,14.182 Z M111.459,14.23 C111.466,14.228 111.472,14.224 111.472,14.224 C111.472,14.224 111.472,14.225 111.472,14.228 C111.466,14.229 111.466,14.229 111.459,14.23 Z M111.578,14.635 C111.889,15.068 112.28,15.463 112.665,15.827 C112.029,16.137 111.149,16.033 110.474,16.03 C110.07,16.029 109.6,15.954 109.19,16.048 C108.882,15.519 108.391,14.908 107.834,14.58 C107.959,14.612 108.08,14.647 108.205,14.652 C108.714,14.679 109.215,14.681 109.724,14.679 C110.172,14.676 110.651,14.679 111.099,14.641 C111.255,14.631 111.428,14.681 111.578,14.635 Z M111.792,13.529 C111.783,13.119 111.776,12.703 111.795,12.289 C112.162,12.771 112.584,13.211 112.934,13.703 C112.915,14.064 112.92,14.441 112.924,14.806 C112.926,14.902 112.951,15.194 112.945,15.448 C112.569,15.053 112.166,14.656 111.718,14.353 C111.702,14.325 111.687,14.305 111.664,14.284 C111.776,14.059 111.795,13.75 111.792,13.529 Z M109.121,40.747 C108.944,40.564 108.733,40.398 108.593,40.22 C108.393,39.973 108.059,39.594 107.729,39.445 C107.729,39.37 107.691,39.308 107.623,39.273 C108.126,38.001 107.853,35.813 107.803,34.542 C107.716,32.211 107.598,29.848 107.598,27.518 C107.604,25.05 107.237,22.593 107.448,20.119 C107.598,18.405 107.759,16.363 107.611,14.643 C107.819,14.89 107.99,15.188 108.207,15.427 C108.4,15.638 108.556,15.887 108.717,16.132 C108.673,16.179 108.646,16.24 108.667,16.324 C109.159,18.044 108.541,20.773 108.481,22.575 C108.41,24.844 108.531,27.181 108.704,29.444 C108.99,33.17 108.508,37.052 109.121,40.747 Z M107.855,40.944 C107.586,40.922 107.275,40.863 106.989,40.887 C106.976,40.875 106.964,40.86 106.945,40.852 C106.814,40.814 106.628,40.562 106.535,40.473 C106.361,40.304 106.199,40.127 106.009,39.973 C105.834,39.832 105.654,39.681 105.471,39.54 C106.155,39.593 106.845,39.588 107.526,39.672 C107.554,39.676 107.573,39.655 107.594,39.649 C107.853,39.84 108.132,40.237 108.295,40.448 C108.434,40.633 108.76,40.863 108.925,41.089 C108.568,41.037 108.214,40.975 107.855,40.944 Z" id="Fill-88"></path>
            </g>
        </g>
    </g>
</svg>