<?xml version="1.0" encoding="UTF-8"?>
<svg width="45px" height="45px" viewBox="0 0 45 45" version="1.1" xmlns="http://www.w3.org/2000/svg" xmlns:xlink="http://www.w3.org/1999/xlink">
    <!-- Generator: Sketch 50.2 (55047) - http://www.bohemiancoding.com/sketch -->
    <title>Group</title>
    <desc>Created with Sketch.</desc>
    <defs></defs>
    <g id="Page-1" stroke="none" stroke-width="1" fill="none" fill-rule="evenodd">
        <g id="Artboard-1" transform="translate(-24.000000, -24.000000)" fill="#FFFFFF">
            <g id="Group" transform="translate(24.000000, 24.000000)">
                <path d="M39.8699,31.33 C39.8699,36.047 36.0469,39.87 31.3299,39.87 L13.8369,39.87 C9.1199,39.87 5.2969,36.047 5.2969,31.33 L5.2969,13.837 C5.2969,9.12 9.1199,5.297 13.8369,5.297 L31.3299,5.297 C36.0469,5.297 39.8699,9.12 39.8699,13.837 L39.8699,31.33 Z M31.3299,0.942 L13.8369,0.942 C6.7259,0.942 0.9419,6.726 0.9419,13.837 L0.9419,31.33 C0.9419,38.439 6.7259,44.224 13.8369,44.224 L31.3299,44.224 C38.4399,44.224 44.2239,38.439 44.2239,31.33 L44.2239,13.837 C44.2239,6.726 38.4389,0.942 31.3299,0.942 Z" id="Fill-4"></path>
                <path d="M22.5828,29.4228 C18.8058,29.4228 15.7428,26.3608 15.7428,22.5828 C15.7428,18.8058 18.8058,15.7428 22.5828,15.7428 C26.3608,15.7428 29.4238,18.8058 29.4238,22.5828 C29.4238,26.3608 26.3608,29.4228 22.5828,29.4228 M22.5828,11.3898 C16.4108,11.3898 11.3898,16.4108 11.3898,22.5828 C11.3898,28.7558 16.4108,33.7768 22.5828,33.7768 C28.7558,33.7768 33.7768,28.7558 33.7768,22.5828 C33.7768,16.4108 28.7558,11.3898 22.5828,11.3898" id="Fill-6"></path>
                <path d="M33.7986,8.7909 C35.2796,8.7909 36.4816,9.9919 36.4816,11.4739 C36.4816,12.9549 35.2796,14.1549 33.7986,14.1549 C32.3176,14.1549 31.1166,12.9549 31.1166,11.4739 C31.1166,9.9919 32.3176,8.7909 33.7986,8.7909" id="Fill-8"></path>
            </g>
        </g>
    </g>
</svg>