<?xml version="1.0" encoding="UTF-8"?>
<svg width="45px" height="38px" viewBox="0 0 45 38" version="1.1" xmlns="http://www.w3.org/2000/svg" xmlns:xlink="http://www.w3.org/1999/xlink">
    <!-- Generator: Sketch 50.2 (55047) - http://www.bohemiancoding.com/sketch -->
    <title>Fill 1</title>
    <desc>Created with Sketch.</desc>
    <defs></defs>
    <g id="Page-1" stroke="none" stroke-width="1" fill="none" fill-rule="evenodd">
        <g id="Artboard-1" transform="translate(-24.000000, -27.000000)" fill="#FFFFFF">
            <path d="M66.9855,28.6579 C65.2165,29.7189 63.3295,30.5449 61.2065,30.8979 C59.5555,29.1299 57.1965,27.9499 54.6025,27.9499 C49.6495,27.9499 45.5225,32.0779 45.5225,37.2659 C45.5225,37.9739 45.6395,38.6809 45.7575,39.3889 C38.2105,39.0359 31.6065,35.2619 27.1245,29.7189 C26.2985,31.1349 25.9445,32.6669 25.9445,34.4359 C25.9445,37.6209 27.5965,40.4509 29.9545,42.2199 C28.4225,42.2199 27.1245,41.7479 25.8275,41.0409 L25.8275,41.1579 C25.8275,45.6389 28.8935,49.4139 33.1395,50.2389 C32.4315,50.4749 31.6065,50.5929 30.7805,50.5929 C30.1905,50.5929 29.6015,50.5929 29.1295,50.4749 C30.3085,54.1309 33.6105,56.8439 37.6205,56.9619 C34.5545,59.4379 30.6625,60.9709 26.4175,60.9709 C25.7095,60.9709 25.0015,60.9709 24.2945,60.8529 C28.3035,63.4479 33.0215,64.9799 38.2105,64.9799 C54.8385,64.9799 64.0375,50.8289 64.0375,38.5639 L64.0375,37.3849 C65.8065,36.0879 67.3395,34.4359 68.5185,32.5499 C66.8675,33.2569 65.0985,33.8459 63.3295,33.9649 C64.8625,32.5499 66.2775,30.7799 66.9855,28.6579" id="Fill-1"></path>
        </g>
    </g>
</svg>