<?xml version="1.0" encoding="UTF-8"?>
<svg width="86px" height="97px" viewBox="0 0 86 97" version="1.1" xmlns="http://www.w3.org/2000/svg" xmlns:xlink="http://www.w3.org/1999/xlink">
    <!-- Generator: Sketch 50.2 (55047) - http://www.bohemiancoding.com/sketch -->
    <title>Group 16</title>
    <desc>Created with Sketch.</desc>
    <defs></defs>
    <g id="Page-1" stroke="none" stroke-width="1" fill="none" fill-rule="evenodd">
        <g id="Homepage-Concept" transform="translate(-668.000000, -795.000000)">
            <g id="Group-16" transform="translate(668.000000, 797.000000)">
                <rect id="Rectangle-15" stroke="#9040EA" stroke-width="4" fill="#FFFFFF" x="2" y="11" width="82" height="82" rx="11"></rect>
                <path d="M3.5,25.5 L84,25.5" id="Line" stroke="#9040EA" stroke-width="4" stroke-linecap="square"></path>
                <rect id="Rectangle-16" stroke="#9040EA" stroke-width="4" fill="#FFFFFF" x="18" y="0" width="10" height="18" rx="2"></rect>
                <rect id="Rectangle-16-Copy-2" stroke="#9040EA" stroke-width="4" fill="#FFFFFF" x="58" y="0" width="10" height="18" rx="2"></rect>
                <rect id="Rectangle-16-Copy" fill="#9040EA" x="18" y="55" width="10" height="10" rx="2"></rect>
                <rect id="Rectangle-16-Copy" fill="#9040EA" x="38" y="55" width="10" height="10" rx="2"></rect>
                <rect id="Rectangle-16-Copy" fill="#9040EA" x="58" y="55" width="10" height="10" rx="2"></rect>
                <rect id="Rectangle-16-Copy" fill="#9040EA" x="18" y="74" width="10" height="10" rx="2"></rect>
                <rect id="Rectangle-16-Copy" fill="#9040EA" x="38" y="73" width="10" height="10" rx="2"></rect>
                <rect id="Rectangle-16-Copy" fill="#9040EA" x="18" y="37" width="10" height="10" rx="2"></rect>
                <rect id="Rectangle-16-Copy" fill="#9040EA" x="38" y="37" width="10" height="10" rx="2"></rect>
                <rect id="Rectangle-16-Copy" fill="#9040EA" x="58" y="37" width="10" height="10" rx="2"></rect>
            </g>
        </g>
    </g>
</svg>